<svg version="1.1" xmlns="http://www.w3.org/2000/svg" xmlns:xlink="http://www.w3.org/1999/xlink" width="104" height="114.648" viewBox="0,0,104,114.648"><g transform="translate(-207,-127.02776)"><g data-paper-data="{&quot;isPaintingLayer&quot;:true}" fill-rule="evenodd" stroke="none" stroke-width="1" stroke-linecap="butt" stroke-linejoin="miter" stroke-miterlimit="10" stroke-dasharray="" stroke-dashoffset="0" style="mix-blend-mode: normal"><path d="M258,127.67601c6.1623,-1.30565 12.1623,-0.63898 18,2c-6,-0.66667 -12,-1.33333 -18,-2z" fill="#3a1058" opacity="0.529"/><path d="M281,130.67601c3.4122,0.54207 6.4122,1.8754 9,4c-4.1209,0.8419 -7.1209,-0.4915 -9,-4z" fill="#532175"/><path d="M252,129.67601c-1.4842,1.57365 -3.1508,2.907 -5,4c-2,1 -4,2 -6,3c-7.8695,4.201 -15.2029,9.201 -22,15c8.8604,-10.5244 19.8604,-17.8577 33,-22z" fill="#662693"/><path d="M267,130.67601c-1.4973,1.7897 -2.164,3.9563 -2,6.5c0.4008,3.1671 0.7341,6.3337 1,9.5c1,0 2,0 3,0c-1.0451,1.3776 -2.3784,2.3776 -4,3c0.193,-3.5366 -1.1403,-6.2032 -4,-8c-0.765,-1.1602 -1.765,-2.1602 -3,-3c-1.279,3.956 -3.9457,5.956 -8,6c-0.6667,-2.3333 -1.3333,-4.6667 -2,-7c6.9742,-2.701 6.6409,-4.0344 -1,-4c1.8492,-1.093 3.5158,-2.42635 5,-4c3.6352,-0.61425 7.3019,-0.94759 11,-1c-0.1265,2.41537 -0.2932,4.7487 -0.5,7c1.3186,-1.7495 1.8186,-3.7495 1.5,-6c1.291,-0.23731 2.291,0.09603 3,1z" fill="#7d25b8"/><path d="M267,130.67601c4.9848,-0.54024 9.6515,0.29309 14,2.5c-0.4574,0.414 -0.7907,0.914 -1,1.5c2.8444,2.4976 4.8444,5.4976 6,9c-1,0 -2,0 -3,0c0,-1.3333 0,-2.6667 0,-4c-2.5486,1.0091 -5.2152,1.8425 -8,2.5c-0.8805,0.7083 -1.5472,1.5416 -2,2.5c0,0.3333 0,0.6667 0,1c-1.4587,-0.0674 -2.7921,0.2659 -4,1c-1,0 -2,0 -3,0c-0.2659,-3.1663 -0.5992,-6.3329 -1,-9.5c-0.164,-2.5437 0.5027,-4.7103 2,-6.5z" fill="#7f27bc"/><path d="M241,136.67601c0.1126,2.5488 -0.5541,4.8821 -2,7c1.6045,1.6789 2.2711,3.6789 2,6c-0.0569,1.109 -0.3902,2.109 -1,3c-1.6667,0 -3.3333,0 -5,0c-0.2751,-2.2583 -1.2751,-2.5916 -3,-1c-0.7164,-0.811 -1.5497,-1.4777 -2.5,-2c-1.3002,1.2073 -2.8002,1.8739 -4.5,2c0,1 0,2 0,3c-1.951,0.2733 -3.451,-0.3934 -4.5,-2c-0.813,1.9357 -1.313,3.9357 -1.5,6c-1.4587,-0.0674 -2.7921,0.2659 -4,1c0.9422,-2.9196 2.2755,-5.5862 4,-8c6.7971,-5.799 14.1305,-10.799 22,-15z" fill="#7f26bb"/><path d="M294,137.67601c2.414,1.4108 4.081,3.4108 5,6c-2.414,-1.4108 -4.081,-3.4108 -5,-6z" fill="#48145c" opacity="0.835"/><path d="M247,133.67601c7.6409,-0.0344 7.9742,1.299 1,4c0.6667,2.3333 1.3333,4.6667 2,7c4.0543,-0.044 6.721,-2.044 8,-6c1.235,0.8398 2.235,1.8398 3,3c0.3546,4.986 -1.6454,6.3193 -6,4c0,1.6667 0,3.3333 0,5c-1.9672,-0.2394 -3.8005,0.0939 -5.5,1c-2.2441,-1.4544 -4.5774,-2.7878 -7,-4c-0.2784,0.9158 -0.7784,1.5825 -1.5,2c0.2711,-2.3211 -0.3955,-4.3211 -2,-6c1.4459,-2.1179 2.1126,-4.4512 2,-7c2,-1 4,-2 6,-3z" fill="#8225c3"/><path d="M283,145.67601c-3.4355,-0.8678 -6.7688,-0.8678 -10,0c0,-0.3333 0,-0.6667 0,-1c3.6426,-1.6091 6.9759,-1.2757 10,1z" fill="#3e185d" opacity="0.192"/><path d="M258,127.67601c6,0.66667 12,1.33333 18,2c1.7161,0.12867 3.3828,0.462 5,1c1.8791,3.5085 4.8791,4.8419 9,4c1.73,0.5256 3.064,1.5256 4,3c0.919,2.5892 2.586,4.5892 5,6c0.174,2.361 0.507,4.6944 1,7c-2.306,-0.4926 -4.639,-0.8259 -7,-1c0.086,-0.9959 -0.248,-1.8292 -1,-2.5c-2.932,-0.9533 -5.9318,-1.4533 -9,-1.5c-3.0241,-2.2757 -6.3574,-2.6091 -10,-1c0.4528,-0.9584 1.1195,-1.7917 2,-2.5c2.7848,-0.6575 5.4514,-1.4909 8,-2.5c0,1.3333 0,2.6667 0,4c1,0 2,0 3,0c-1.1556,-3.5024 -3.1556,-6.5024 -6,-9c0.2093,-0.586 0.5426,-1.086 1,-1.5c-4.3485,-2.20691 -9.0152,-3.04024 -14,-2.5c-0.709,-0.90397 -1.709,-1.23731 -3,-1c0.3186,2.2505 -0.1814,4.2505 -1.5,6c0.2068,-2.2513 0.3735,-4.58463 0.5,-7c-3.6981,0.05241 -7.3648,0.38575 -11,1c1.6016,-1.57394 3.6016,-2.24061 6,-2z" fill="#7c2db1"/><path d="M261,141.67601c2.8597,1.7968 4.193,4.4634 4,8c-1.6765,0.6834 -2.3432,2.0168 -2,4c-0.6667,1.3333 -1.6667,2.3333 -3,3c-3.473,2.1367 -5.8064,5.1367 -7,9c-0.6237,2.254 -1.957,3.9206 -4,5c-0.6667,0 -1.3333,0 -2,0c-2.2539,-2.3362 -2.5873,-5.0028 -1,-8c-0.8257,-2.9898 -1.659,-5.9898 -2.5,-9c-1.0113,-0.8366 -2.1779,-1.17 -3.5,-1c0.6098,-0.891 0.9431,-1.891 1,-3c0.7216,-0.4175 1.2216,-1.0842 1.5,-2c2.4226,1.2122 4.7559,2.5456 7,4c1.6995,-0.9061 3.5328,-1.2394 5.5,-1c0,-1.6667 0,-3.3333 0,-5c4.3546,2.3193 6.3546,0.986 6,-4z" fill="#7e27b9"/><path d="M283,145.67601c3.0682,0.0467 6.068,0.5467 9,1.5c0.752,0.6708 1.086,1.5041 1,2.5c-3.489,-1.158 -6.8223,-2.4914 -10,-4z" fill="#592978"/><path d="M273,145.67601c-3.0203,3.0162 -6.3536,5.6829 -10,8c-0.3432,-1.9832 0.3235,-3.3166 2,-4c1.6216,-0.6224 2.9549,-1.6224 4,-3c1.2079,-0.7341 2.5413,-1.0674 4,-1z" fill="#501e78"/><path d="M299,143.67601c2.777,2.4505 4.777,5.4505 6,9c-1.068,0.9345 -2.401,1.2678 -4,1c-2.985,-0.8257 -5.651,-2.159 -8,-4c2.361,0.1741 4.694,0.5074 7,1c-0.493,-2.3056 -0.826,-4.639 -1,-7z" fill="#662690"/><path d="M235,152.67601c1.6667,0 3.3333,0 5,0c1.3221,-0.17 2.4887,0.1634 3.5,1c0.841,3.0102 1.6743,6.0102 2.5,9c-1.5873,2.9972 -1.2539,5.6638 1,8c-2.5821,-0.4746 -4.5821,0.1921 -6,2c-1.2079,-0.7341 -2.5413,-1.0674 -4,-1c-1.1266,-3.3722 -2.4599,-6.7056 -4,-10c1.2394,-2.1755 2.9061,-4.0088 5,-5.5c-0.865,-1.3588 -1.865,-2.5255 -3,-3.5z" fill="#8228bf"/><path d="M235,152.67601c1.135,0.9745 2.135,2.1412 3,3.5c-2.0939,1.4912 -3.7606,3.3245 -5,5.5c-2.0492,0.2058 -2.3825,1.0391 -1,2.5c-2.6325,1.256 -5.2992,2.4227 -8,3.5c-1.6143,-0.3029 -2.9477,-0.9695 -4,-2c0,-1 0,-2 0,-3c-1,0 -2,0 -3,0c-1.0511,-0.7223 -1.7178,-1.7223 -2,-3c1.2079,-0.7341 2.5413,-1.0674 4,-1c0.187,-2.0643 0.687,-4.0643 1.5,-6c1.049,1.6066 2.549,2.2733 4.5,2c0,-1 0,-2 0,-3c1.6998,-0.1261 3.1998,-0.7927 4.5,-2c0.9503,0.5223 1.7836,1.189 2.5,2c1.7249,-1.5916 2.7249,-1.2583 3,1z" fill="#8325c3"/><path d="M305,152.67601c1.276,0.8864 1.276,1.8864 0,3c-1.526,-0.4943 -2.859,-1.161 -4,-2c1.599,0.2678 2.932,-0.0655 4,-1z" fill="#44275a"/><path d="M260,156.67601c-1.9581,3.2915 -4.2915,6.2915 -7,9c1.1936,-3.8633 3.527,-6.8633 7,-9z" fill="#4d2069" opacity="0.212"/><path d="M233,161.67601c1.5401,3.2944 2.8734,6.6278 4,10c1.4587,-0.0674 2.7921,0.2659 4,1c-0.8414,1.8792 -1.1747,3.8792 -1,6c-0.5522,1.8307 -0.5522,3.4974 0,5c-1.419,1.8359 -2.5857,3.8359 -3.5,6c-0.3333,-0.3333 -0.6667,-0.6667 -1,-1c-0.9186,2.9016 -1.7519,3.2349 -2.5,1c-0.5352,-2.7385 0.4648,-4.5718 3,-5.5c-0.6667,-0.3333 -1.3333,-0.6667 -2,-1c3.8139,-2.2491 3.9806,-4.7491 0.5,-7.5c-1.3747,2.4368 -1.8747,5.1035 -1.5,8c-2.2743,-0.2151 -4.441,-0.8818 -6.5,-2c-1.3261,0.2549 -2.3261,0.9216 -3,2c-0.7202,-1.5557 -1.8868,-2.5557 -3.5,-3c-1.3333,-5 -1.3333,-10 0,-15c1.0523,1.0305 2.3857,1.6971 4,2c2.7008,-1.0773 5.3675,-2.244 8,-3.5c-1.3825,-1.4609 -1.0492,-2.2942 1,-2.5z" fill="#8326c3"/><path d="M247,170.67601c0.6667,0 1.3333,0 2,0c-2.0321,1.4067 -4.1987,2.7401 -6.5,4c-0.3845,1.6966 -0.2178,3.3632 0.5,5c-1.109,-0.0569 -2.109,-0.3902 -3,-1c-0.1747,-2.1208 0.1586,-4.1208 1,-6c1.4179,-1.8079 3.4179,-2.4746 6,-2z" fill="#62238e"/><path d="M217,162.67601c1,0 2,0 3,0c0,1 0,2 0,3c-1.3333,5 -1.3333,10 0,15c-0.3257,2.8113 -1.1591,5.478 -2.5,8c-0.7835,-3.2603 -0.6168,-6.4269 0.5,-9.5c-0.5253,-0.6924 -1.1919,-1.1924 -2,-1.5c-0.7621,1.1283 -1.4288,2.2949 -2,3.5c0.6652,4.5602 0.9985,9.3936 1,14.5c-2.8371,-1.6723 -3.5038,-1.0056 -2,2c-0.3148,1.983 -1.3148,3.3163 -3,4c0.785,-11.3276 1.785,-22.6609 3,-34c3.4103,0.1162 4.7436,-1.5504 4,-5z" fill="#8225c3"/><path d="M233,189.67601c-2.868,0.8527 -5.5347,2.186 -8,4c-1.4892,1.6161 -2.4892,3.6161 -3,6c-0.6667,0.3333 -1.3333,0.6667 -2,1c-0.7525,-3.6915 -1.5858,-7.3582 -2.5,-11c-0.0646,4.5176 -0.7313,8.8509 -2,13c-0.4966,-2.3098 -0.6633,-4.6432 -0.5,-7c-0.0015,-5.1064 -0.3348,-9.9398 -1,-14.5c0.5712,-1.2051 1.2379,-2.3717 2,-3.5c0.8081,0.3076 1.4747,0.8076 2,1.5c-1.1168,3.0731 -1.2835,6.2397 -0.5,9.5c1.3409,-2.522 2.1743,-5.1887 2.5,-8c1.6132,0.4443 2.7798,1.4443 3.5,3c0.6739,-1.0784 1.6739,-1.7451 3,-2c2.059,1.1182 4.2257,1.7849 6.5,2c-0.3747,-2.8965 0.1253,-5.5632 1.5,-8c3.4806,2.7509 3.3139,5.2509 -0.5,7.5c0.6667,0.3333 1.3333,0.6667 2,1c-2.5352,0.9282 -3.5352,2.7615 -3,5.5z" fill="#8225bf"/><path d="M219,151.67601c-1.7245,2.4138 -3.0578,5.0804 -4,8c-1.6733,0.843 -2.84,2.1763 -3.5,4c-2.2821,12.2092 -3.1154,24.5425 -2.5,37c-0.7296,-3.5306 -1.3963,-7.1973 -2,-11c0.0646,-6.8814 0.5646,-14.2148 1.5,-22c1.2456,-6.8275 4.7456,-12.1609 10.5,-16z" fill="#552079"/><path d="M215,159.67601c0.2822,1.2777 0.9489,2.2777 2,3c0.7436,3.4496 -0.5897,5.1162 -4,5c-1.215,11.3391 -2.215,22.6724 -3,34c-0.3333,0 -0.6667,0 -1,0c0,-0.3333 0,-0.6667 0,-1c-0.6154,-12.4575 0.2179,-24.7908 2.5,-37c0.66,-1.8237 1.8267,-3.157 3.5,-4z" fill="#8027ba"/><path d="M240,178.67601c0.891,0.6098 1.891,0.9431 3,1c1,0.6667 2,1.3333 3,2c0,2.6667 0,5.3333 0,8c-1,0 -2,0 -3,0c0.219,-1.175 -0.1143,-2.175 -1,-3c-1.2616,2.6155 -2.4282,5.2821 -3.5,8c-1,1.3333 -2,1.3333 -3,0c-1.1178,2.2654 -1.9512,4.5987 -2.5,7c-1.6667,0 -3.3333,0 -5,0c-1.8386,-2.1535 -2.8386,-4.8201 -3,-8c2.4653,-1.814 5.132,-3.1473 8,-4c0.7481,2.2349 1.5814,1.9016 2.5,-1c0.3333,0.3333 0.6667,0.6667 1,1c0.9143,-2.1641 2.081,-4.1641 3.5,-6c-0.5522,-1.5026 -0.5522,-3.1693 0,-5z" fill="#8327be"/><path d="M246,181.67601c1.2931,6.9623 2.9598,13.9623 5,21c-1.109,-0.0569 -2.109,-0.3902 -3,-1c0.1716,-0.9916 -0.1618,-1.6583 -1,-2c-0.8242,-3.2644 -1.1576,-6.5977 -1,-10c0,-2.6667 0,-5.3333 0,-8z" fill="#61238c"/><path d="M225,193.67601c0.1614,3.1799 1.1614,5.8465 3,8c-0.3656,1.1946 -1.199,1.8613 -2.5,2c-1.9214,-1.5028 -4.088,-2.1695 -6.5,-2c-0.1751,2.8289 1.1582,4.4955 4,5c-1.7779,1.2258 -2.7779,2.8925 -3,5c-1.5418,-0.8007 -3.2085,-1.134 -5,-1c-1.4206,-3.1781 -3.0873,-6.1781 -5,-9c1.6852,-0.6837 2.6852,-2.017 3,-4c-1.5038,-3.0056 -0.8371,-3.6723 2,-2c-0.1633,2.3568 0.0034,4.6902 0.5,7c1.2687,-4.1491 1.9354,-8.4824 2,-13c0.9142,3.6418 1.7475,7.3085 2.5,11c0.6667,-0.3333 1.3333,-0.6667 2,-1c0.5108,-2.3839 1.5108,-4.3839 3,-6z" fill="#8226c2"/><path d="M247,199.67601c0.8382,0.3417 1.1716,1.0084 1,2c-0.5283,1.2206 -1.195,2.3873 -2,3.5c1.4661,1.5522 2.4661,3.3855 3,5.5c-2.4506,4.9523 -6.2839,8.2856 -11.5,10c-0.4901,2.045 -0.3235,4.045 0.5,6c-1,0 -2,0 -3,0c0,-1 0,-2 0,-3c-1.788,0.285 -3.4547,-0.048 -5,-1c3.9918,-1.8779 6.9918,-4.0446 9,-6.5c-1.2356,-1.0848 -2.5689,-1.9181 -4,-2.5c0.3656,-1.1946 1.199,-1.8613 2.5,-2c3.9359,2.9795 7.1025,2.3128 9.5,-2c-2.184,-4.2011 -5.0173,-4.8678 -8.5,-2c-0.3333,-1.3333 -0.6667,-2.6667 -1,-4c-0.972,1.8049 -2.1387,3.4716 -3.5,5c-0.3333,-0.6667 -0.6667,-1.3333 -1,-2c0.916,-3.024 2.416,-5.6906 4.5,-8c1,1.3333 2,2.6667 3,4c1.4579,-1.2468 2.9579,-1.2468 4.5,0c1.4185,-0.5047 2.0852,-1.5047 2,-3z" fill="#8325c0"/><path d="M209,201.67601c0.3333,0 0.6667,0 1,0c1.9127,2.8219 3.5794,5.8219 5,9c-2.7768,-2.4505 -4.7768,-5.4505 -6,-9z" fill="#541d7f"/><path d="M246,189.67601c-0.1576,3.4023 0.1758,6.7356 1,10c0.0852,1.4953 -0.5815,2.4953 -2,3c-1.5421,-1.2468 -3.0421,-1.2468 -4.5,0c-1,-1.3333 -2,-2.6667 -3,-4c-2.084,2.3094 -3.584,4.976 -4.5,8c0.3333,0.6667 0.6667,1.3333 1,2c1.3613,-1.5284 2.528,-3.1951 3.5,-5c0.3333,1.3333 0.6667,2.6667 1,4c3.4827,-2.8678 6.316,-2.2011 8.5,2c-2.3975,4.3128 -5.5641,4.9795 -9.5,2c-1.301,0.1387 -2.1344,0.8054 -2.5,2c-0.3966,1.025 -1.0632,1.1917 -2,0.5c-0.2928,-3.0944 -1.9594,-4.5944 -5,-4.5c-0.0326,3.6019 1.3007,6.6019 4,9c-2.6998,2.5754 -4.0332,2.242 -4,-1c-2.6636,-1.9785 -5.3303,-3.9785 -8,-6c0.2221,-2.1075 1.2221,-3.7742 3,-5c-2.8418,-0.5045 -4.1751,-2.1711 -4,-5c2.412,-0.1695 4.5786,0.4972 6.5,2c1.301,-0.1387 2.1344,-0.8054 2.5,-2c1.6667,0 3.3333,0 5,0c0.5488,-2.4013 1.3822,-4.7346 2.5,-7c1,1.3333 2,1.3333 3,0c1.0718,-2.7179 2.2384,-5.3845 3.5,-8c0.8857,0.825 1.219,1.825 1,3c1,0 2,0 3,0z" fill="#8325c3"/><path d="M306,213.67601c0.257,-3.4322 0.924,-6.7655 2,-10c-2.885,0.8822 -5.552,2.2155 -8,4c2.447,-3.4801 5.613,-6.1468 9.5,-8c0.692,0.5253 1.192,1.1919 1.5,2c-0.524,4.5956 -2.19,8.5956 -5,12z" fill="#582a77"/><path d="M219,214.67601c3.2642,1.5941 5.9309,3.9275 8,7c-3.2642,-1.5941 -5.9309,-3.9275 -8,-7z" fill="#401261" opacity="0.906"/><path d="M299,208.67601c-0.359,1.871 -1.359,3.371 -3,4.5c-2.234,1.7498 -4.568,3.2498 -7,4.5c2.915,-3.4587 6.248,-6.4587 10,-9z" fill="#4f1d6f" opacity="0.749"/><path d="M306,213.67601c-3.356,6.7154 -7.69,12.715 -13,18c0.321,-1.317 0.654,-2.651 1,-4c-0.318,-1.147 -0.984,-1.981 -2,-2.5c0.948,-0.483 1.948,-0.649 3,-0.5c-0.171,-3.2973 0.495,-3.6306 2,-1c0.751,-0.876 1.251,-1.876 1.5,-3c0.667,1.3333 1.333,1.3333 2,0c0.49,-1.2932 0.657,-2.6266 0.5,-4c-2.181,-0.2163 -3.847,0.617 -5,2.5c-1.735,0.6514 -3.402,0.4847 -5,-0.5c-3.495,2.8242 -7.4952,4.158 -12,4c0,-0.333 0,-0.6667 0,-1c3.589,-0.798 6.9223,-2.1313 10,-4c2.432,-1.2502 4.766,-2.7502 7,-4.5c1.641,-1.129 2.641,-2.629 3,-4.5c0,-0.6667 0.333,-1 1,-1c2.448,-1.7845 5.115,-3.1178 8,-4c-1.076,3.2345 -1.743,6.5678 -2,10z" fill="#752ba7"/><path d="M248,201.67601c0.891,0.6098 1.891,0.9431 3,1c-0.2361,2.7257 0.5972,5.059 2.5,7c0.2565,3.057 0.7565,6.057 1.5,9c-1.4538,1.7633 -1.1204,3.0967 1,4c0.9656,-1.896 1.2989,-3.896 1,-6c1.4587,-0.0674 2.7921,0.2659 4,1c2.6858,2.3572 5.6858,4.3572 9,6c-2.3194,-0.667 -4.6527,-0.834 -7,-0.5c1.2433,1.154 2.2433,2.488 3,4c-0.5253,0.692 -1.1919,1.192 -2,1.5c-2.354,-1.498 -4.6873,-2.832 -7,-4c-2.9365,-1.838 -5.7698,-1.838 -8.5,0c-2.2354,-1.702 -4.7354,-2.7024 -7.5,-3c0.0271,1.699 0.6938,3.033 2,4c-1.7161,0.129 -3.3828,0.462 -5,1c-0.8235,-1.955 -0.9901,-3.955 -0.5,-6c5.2161,-1.7144 9.0494,-5.0477 11.5,-10c-0.5339,-2.1145 -1.5339,-3.9478 -3,-5.5c0.805,-1.1127 1.4717,-2.2794 2,-3.5z" fill="#8127bb"/><path d="M251,202.67601c3.3024,4.3093 6.6357,8.6426 10,13c0,0.6667 0,1.3333 0,2c-1.2079,-0.7341 -2.5413,-1.0674 -4,-1c0.2989,2.104 -0.0344,4.104 -1,6c-2.1204,-0.9033 -2.4538,-2.2367 -1,-4c-0.7435,-2.943 -1.2435,-5.943 -1.5,-9c-1.9028,-1.941 -2.7361,-4.2743 -2.5,-7z" fill="#7124a0"/><path d="M261,215.67601c2.8507,2.0048 5.8507,3.8382 9,5.5c2.9816,0.498 5.9816,0.6646 9,0.5c0,0.3333 0,0.667 0,1c-1.8792,0.841 -3.8792,1.175 -6,1c-1,0 -2,0 -3,0c-3.3142,-1.6428 -6.3142,-3.6428 -9,-6c0,-0.6667 0,-1.3333 0,-2z" fill="#542178"/><path d="M257,224.67601c-1.6992,-0.16 -3.3659,0.006 -5,0.5c2.3706,2.706 5.0372,5.039 8,7c-1.17,1.755 -2.8367,2.755 -5,3c1.5557,0.72 2.5557,1.887 3,3.5c-1.9352,-0.65 -3.9352,-0.983 -6,-1c-0.3333,0 -0.6667,0 -1,0c0,-0.667 0,-1.333 0,-2c-1.2525,-1.839 -1.2525,-3.672 0,-5.5c-1.6667,-0.333 -3.3333,-0.667 -5,-1c-0.4743,-1.729 -1.4743,-2.895 -3,-3.5c-1.3062,-0.967 -1.9729,-2.301 -2,-4c2.7646,0.2976 5.2646,1.298 7.5,3c2.7302,-1.838 5.5635,-1.838 8.5,0z" fill="#8326bf"/><path d="M293,231.67601c-1.333,0.333 -2.667,0.667 -4,1c-1.7922,-0.809 -3.7922,-1.309 -6,-1.5c0.6667,-0.667 1.3333,-1.333 2,-2c-2.0342,-1.205 -4.0342,-1.372 -6,-0.5c0.5253,0.692 1.1919,1.192 2,1.5c-3.2423,2.325 -6.5757,2.658 -10,1c1.7495,-1.319 3.7495,-1.819 6,-1.5c0.2845,-1.915 -0.0489,-3.581 -1,-5c-1.291,0.237 -2.291,-0.096 -3,-1c2.1208,0.175 4.1208,-0.159 6,-1c4.5048,0.158 8.505,-1.1758 12,-4c1.598,0.9847 3.265,1.1514 5,0.5c1.153,-1.883 2.819,-2.7163 5,-2.5c0.157,1.3734 -0.01,2.7068 -0.5,4c-0.667,1.3333 -1.333,1.3333 -2,0c-0.249,1.124 -0.749,2.124 -1.5,3c-1.505,-2.6306 -2.171,-2.2973 -2,1c-1.052,-0.149 -2.052,0.017 -3,0.5c1.016,0.519 1.682,1.353 2,2.5c-0.346,1.349 -0.679,2.683 -1,4z" fill="#8129ba"/><path d="M235,227.67601c1.3734,-0.157 2.7068,0.01 4,0.5c3.5518,3.273 7.5518,5.773 12,7.5c0,0.667 0,1.333 0,2c-6.0145,-2.335 -11.3478,-5.669 -16,-10z" fill="#5e2484"/><path d="M235,213.67601c1.4311,0.5819 2.7644,1.4152 4,2.5c-2.0082,2.4554 -5.0082,4.6221 -9,6.5c1.5453,0.952 3.212,1.285 5,1c0,1 0,2 0,3c1,0 2,0 3,0c1.6172,-0.538 3.2839,-0.871 5,-1c1.5257,0.605 2.5257,1.771 3,3.5c1.6667,0.333 3.3333,0.667 5,1c-1.2525,1.828 -1.2525,3.661 0,5.5c-4.4482,-1.727 -8.4482,-4.227 -12,-7.5c-1.2932,-0.49 -2.6266,-0.657 -4,-0.5c-3.3908,-1.029 -6.0574,-3.029 -8,-6c-2.0691,-3.0725 -4.7358,-5.4059 -8,-7c-1.6667,-1 -3,-2.3333 -4,-4c1.7915,-0.134 3.4582,0.1993 5,1c2.6697,2.0215 5.3364,4.0215 8,6c-0.0332,3.242 1.3002,3.5754 4,1c-2.6993,-2.3981 -4.0326,-5.3981 -4,-9c3.0406,-0.0944 4.7072,1.4056 5,4.5c0.9368,0.6917 1.6034,0.525 2,-0.5z" fill="#7c27b4"/><path d="M276,224.67601c0.9511,1.419 1.2845,3.085 1,5c-2.2505,-0.319 -4.2505,0.181 -6,1.5c3.4243,1.658 6.7577,1.325 10,-1c-0.8081,-0.308 -1.4747,-0.808 -2,-1.5c1.9658,-0.872 3.9658,-0.705 6,0.5c-0.6667,0.667 -1.3333,1.333 -2,2c2.2078,0.191 4.2078,0.691 6,1.5c0,1 0,2 0,3c-2.3421,0.004 -4.3421,0.837 -6,2.5c-6.3246,0.5 -12.6579,0.666 -19,0.5c1.5887,-1.372 2.9221,-3.039 4,-5c1.866,1.063 2.366,0.396 1.5,-2c-3.0114,-1.5 -2.5114,-2.334 1.5,-2.5c0.9445,-2.446 2.6112,-3.946 5,-4.5z" fill="#8329bd"/><path d="M270,223.67601c1,0 2,0 3,0c0.709,0.904 1.709,1.237 3,1c-2.3888,0.554 -4.0555,2.054 -5,4.5c-4.0114,0.166 -4.5114,1 -1.5,2.5c0.866,2.396 0.366,3.063 -1.5,2c-1.0779,1.961 -2.4113,3.628 -4,5c-2,0 -4,0 -6,0c-0.4443,-1.613 -1.4443,-2.78 -3,-3.5c2.1633,-0.245 3.83,-1.245 5,-3c-2.9628,-1.961 -5.6294,-4.294 -8,-7c1.6341,-0.494 3.3008,-0.66 5,-0.5c2.3127,1.168 4.646,2.502 7,4c0.8081,-0.308 1.4747,-0.808 2,-1.5c-0.7567,-1.512 -1.7567,-2.846 -3,-4c2.3473,-0.334 4.6806,-0.167 7,0.5z" fill="#8425c2"/><path d="M252,237.67601c2.0648,0.017 4.0648,0.35 6,1c0,0.333 0,0.667 0,1c-2.3984,0.241 -4.3984,-0.426 -6,-2z" fill="#50206c"/><path d="M293,231.67601c-2.9,6.334 -7.9001,9 -15,8c-3.4023,-0.158 -6.7356,0.176 -10,1c-3.6426,1.609 -6.9759,1.276 -10,-1c0,-0.333 0,-0.667 0,-1c2,0 4,0 6,0c6.3421,0.166 12.6754,0 19,-0.5c1.6579,-1.663 3.6579,-2.496 6,-2.5c0,-1 0,-2 0,-3c1.333,-0.333 2.667,-0.667 4,-1z" fill="#652a8d"/><path d="M278,239.67601c-3.2369,1.876 -6.5702,2.21 -10,1c3.2644,-0.824 6.5977,-1.158 10,-1z" fill="#3b184c" opacity="0.541"/></g></g></svg>