<svg version="1.1" xmlns="http://www.w3.org/2000/svg" xmlns:xlink="http://www.w3.org/1999/xlink" width="54.31036" height="43.29898" viewBox="0,0,54.31036,43.29898"><g transform="translate(-195.59484,-143.89587)"><g data-paper-data="{&quot;isPaintingLayer&quot;:true}" fill="#ead6b2" fill-rule="evenodd" stroke="none" stroke-width="1" stroke-linecap="butt" stroke-linejoin="miter" stroke-miterlimit="10" stroke-dasharray="" stroke-dashoffset="0" style="mix-blend-mode: normal"><path d="M249.4345,186.18993c0.67916,0.433 0.62338,0.76798 -0.16749,1.00492c0.10736,-0.16451 0.2189,-0.33199 0.33497,-0.50246c-0.10501,-0.15355 -0.16095,-0.32104 -0.16749,-0.50246z" opacity="0.318"/><g><path d="M204.63529,144.56051c-0.02087,0.19925 0.0354,0.36824 0.16898,0.50694c0.01394,0.28303 -0.00017,0.56467 -0.04224,0.8449c-0.03236,-0.04698 -0.0746,-0.07514 -0.12674,-0.08449c-0.07528,-0.05152 -0.15977,-0.07968 -0.25347,-0.08449c-0.00431,-0.39602 -0.0888,-0.76215 -0.25347,-1.09837c0,-0.16898 0,-0.33796 0,-0.50694c0.09928,-0.0185 0.18376,0.00966 0.25347,0.08449c0.0452,0.14879 0.12969,0.26144 0.25347,0.33796z" opacity="0.995"/><path d="M204.63529,144.56051c-0.12378,-0.07652 -0.20827,-0.18917 -0.25347,-0.33796c-0.06971,-0.07483 -0.15419,-0.103 -0.25347,-0.08449c0,0.16898 0,0.33796 0,0.50694c-0.09539,-0.17981 -0.1095,-0.37695 -0.04224,-0.59143c0.08052,-0.17677 0.19314,-0.20493 0.33796,-0.08449c0.09598,0.18951 0.16645,0.38665 0.21123,0.59143z" opacity="0.714"/><path d="M204.63529,144.56051c0.12741,0.14207 0.2119,0.31105 0.25347,0.50694c-0.02813,0 -0.05635,0 -0.08449,0c-0.13358,-0.13871 -0.18985,-0.30769 -0.16898,-0.50694z" opacity="0.165"/><path d="M204.88876,145.06745c0.1209,0.10818 0.17726,0.249 0.16898,0.42245c-0.14473,-0.09593 -0.20109,-0.23674 -0.16898,-0.42245z" opacity="0.557"/><path d="M204.80427,145.06745c0.02813,0 0.05635,0 0.08449,0c-0.0321,0.18571 0.02425,0.32652 0.16898,0.42245c0.13688,0.49749 0.22136,1.00444 0.25347,1.52083c0.01453,0.08378 -0.01369,0.14011 -0.08449,0.16898c0.01377,-0.19913 -0.00025,-0.39628 -0.04224,-0.59143c-0.24164,0.03339 -0.42473,0.14604 -0.54919,0.33796c-0.0877,-0.36935 -0.0877,-0.73547 0,-1.09837c0.05213,0.00935 0.09437,0.03751 0.12674,0.08449c0.04208,-0.28024 0.05619,-0.56187 0.04224,-0.8449z"/><path d="M205.05774,145.48991c0.37252,0.44324 0.48514,0.95019 0.33796,1.52083c-0.02813,0 -0.05635,0 -0.08449,0c-0.0321,-0.51639 -0.1166,-1.02333 -0.25347,-1.52083z" opacity="0.647"/><path d="M204.12835,144.645c0.16467,0.33622 0.24916,0.70235 0.25347,1.09837c-0.04216,0.33711 -0.08441,0.67507 -0.12674,1.01388c-0.02349,0.07737 -0.06573,0.13371 -0.12674,0.16898c0.10916,-0.7607 0.10916,-1.52111 0,-2.28124z" opacity="0.494"/><path d="M204.38182,145.74338c0.0937,0.00481 0.17819,0.03297 0.25347,0.08449c-0.0877,0.3629 -0.0877,0.72903 0,1.09837c0,0.11265 -0.05635,0.16898 -0.16898,0.16898c0.00938,-0.18146 -0.04698,-0.20962 -0.16898,-0.08449c-0.05661,0.15136 -0.11296,0.29218 -0.16898,0.42245c0,-0.16898 0,-0.33796 0,-0.50694c0.061,-0.03528 0.10325,-0.0916 0.12674,-0.16898c0.04233,-0.33882 0.08457,-0.67677 0.12674,-1.01388z"/><path d="M202.10059,149.37646c0,-0.08449 0,-0.16898 0,-0.25347c0.1046,-0.14484 0.16095,-0.31382 0.16898,-0.50694c0.2953,-0.72336 0.04182,-1.1458 -0.76041,-1.26735c-0.05635,0 -0.11263,0 -0.16898,0c0.20447,-0.20484 0.4298,-0.21892 0.67592,-0.04224c0.402,0.28274 0.58509,0.66295 0.54919,1.14062c-0.15876,0.31756 -0.31371,0.62736 -0.4647,0.92939z" opacity="0.475"/><path d="M201.34017,147.34869c-0.0681,0.10376 -0.15259,0.18825 -0.25347,0.25347c-0.07528,0.05152 -0.15977,0.07968 -0.25347,0.08449c0.11001,-0.19617 0.27899,-0.30882 0.50694,-0.33796z" opacity="0.227"/><path d="M205.22672,147.17971c-0.06083,0.47633 -0.08897,0.95511 -0.08449,1.43633c-0.08254,-0.23547 -0.11068,-0.48894 -0.08449,-0.76041c0.03608,-0.36537 0.0643,-0.7315 0.08449,-1.09837c-0.25694,-0.00798 -0.3977,0.11876 -0.42245,0.38021c0.05678,0.25278 0.05678,0.49217 0,0.71817c-0.13096,-0.16289 -0.2718,-0.31779 -0.42245,-0.4647c0.06802,-0.09401 0.12437,-0.19259 0.16898,-0.29571c0.11263,0 0.16898,-0.05633 0.16898,-0.16898c0.12446,-0.19192 0.30754,-0.30457 0.54919,-0.33796c0.04199,0.19516 0.05602,0.3923 0.04224,0.59143z"/><path d="M206.74755,147.51767c0.03523,-0.05271 0.09159,-0.08088 0.16898,-0.08449c0.7583,0.08542 1.51871,0.15583 2.28124,0.21123c0.07739,0.02352 0.13366,0.06577 0.16898,0.12674c-0.78821,-0.06006 -1.57675,-0.11638 -2.36572,-0.16898c-0.0599,-0.07638 -0.14439,-0.10454 -0.25347,-0.08449z" opacity="0.118"/><path d="M200.83323,147.68665c-0.16413,0.25099 -0.38943,0.41998 -0.67592,0.50694c0.19435,-0.20988 0.41966,-0.37885 0.67592,-0.50694z" opacity="0.412"/><path d="M201.34017,147.34869c0.05635,0 0.11263,0 0.16898,0c-0.05999,0.18979 -0.10223,0.38693 -0.12674,0.59143c-0.16417,0.11043 -0.31912,0.11043 -0.4647,0c0.21232,-0.06131 0.26859,-0.17397 0.16898,-0.33796c0.10088,-0.06522 0.18537,-0.14971 0.25347,-0.25347z"/><path d="M204.12835,146.92624c0,0.16898 0,0.33796 0,0.50694c-0.03912,0.25198 -0.06725,0.50545 -0.08449,0.76041c-0.00017,0.30961 -0.11279,0.56308 -0.33796,0.76041c0.17287,-0.67899 0.31363,-1.35491 0.42245,-2.02777z" opacity="0.184"/><path d="M205.31122,147.01073c0.02813,0 0.05635,0 0.08449,0c-0.11719,0.585 -0.17354,1.17644 -0.16898,1.7743c-0.02813,0 -0.05635,0 -0.08449,0c0,-0.05633 0,-0.11265 0,-0.16898c-0.00448,-0.48122 0.02366,-0.96 0.08449,-1.43633c0.0708,-0.02887 0.09902,-0.0852 0.08449,-0.16898z" opacity="0.282"/><path d="M207.00102,147.60216c0.78897,0.05259 1.57752,0.10892 2.36572,0.16898c0.12606,0.23852 0.32326,0.37934 0.59143,0.42245c0.05357,0.12224 0.15217,0.17856 0.29571,0.16898c0.35469,-0.16863 0.62227,-0.08413 0.80266,0.25347c-0.05635,0 -0.11263,0 -0.16898,0c-0.35908,-0.06527 -0.72518,-0.10752 -1.09837,-0.12674c-0.14304,-0.22725 -0.34024,-0.39623 -0.59143,-0.50694c-0.39693,-0.02966 -0.79116,-0.07191 -1.18286,-0.12674c-0.33238,-0.07264 -0.67035,-0.1008 -1.01388,-0.08449c-0.19813,0.1569 -0.22627,0.35405 -0.08449,0.59143c0.12302,0.2889 0.23564,0.58461 0.33796,0.88715c-0.10595,0.30807 -0.10595,0.60378 0,0.88715c-0.13181,0.13767 -0.10367,0.23623 0.08449,0.29571c-0.09708,0.20778 -0.09708,0.419 0,0.63368c-0.05635,-0.02816 -0.11263,-0.05633 -0.16898,-0.08449c-0.0294,-0.384 -0.08576,-0.76421 -0.16898,-1.14062c0.15884,-0.46858 0.10249,-0.90512 -0.16898,-1.3096c-0.07131,-0.30409 -0.09944,-0.61388 -0.08449,-0.92939c0.08449,0 0.16898,0 0.25347,0z"/><path d="M201.50915,147.34869c0.80223,0.12155 1.0557,0.544 0.76041,1.26735c0.01386,-0.22705 -0.00025,-0.45236 -0.04224,-0.67592c-0.08542,-0.07068 -0.18402,-0.09885 -0.29571,-0.08449c-0.02306,0.16484 0.0332,0.29158 0.16898,0.38021c-0.16577,-0.01189 -0.32073,0.00219 -0.4647,0.04224c-0.31279,-0.24068 -0.58028,-0.21252 -0.80266,0.08449c-0.09956,-0.15528 -0.0714,-0.2961 0.08449,-0.42245c0.14558,0.11043 0.30053,0.11043 0.4647,0c0.0245,-0.2045 0.06675,-0.40164 0.12674,-0.59143z"/><path d="M205.05774,147.85563c-0.12192,0.07056 -0.20641,0.18321 -0.25347,0.33796c-0.07748,-0.05299 -0.16197,-0.08116 -0.25347,-0.08449c-0.05213,-0.00935 -0.09437,-0.03751 -0.12674,-0.08449c-0.08863,0.13574 -0.21536,0.19207 -0.38021,0.16898c0.01724,-0.25496 0.04537,-0.50843 0.08449,-0.76041c0.05602,-0.13028 0.11237,-0.2711 0.16898,-0.42245c0.122,-0.12513 0.17836,-0.09697 0.16898,0.08449c-0.04461,0.10313 -0.10097,0.2017 -0.16898,0.29571c0.15065,0.1469 0.29149,0.30181 0.42245,0.4647c0.05678,-0.226 0.05678,-0.46539 0,-0.71817c0.02475,-0.26145 0.16552,-0.38818 0.42245,-0.38021c-0.02019,0.36687 -0.04841,0.73301 -0.08449,1.09837z"/><path d="M206.74755,147.51767c0.10908,-0.02005 0.19357,0.00811 0.25347,0.08449c-0.08449,0 -0.16898,0 -0.25347,0c-0.01496,0.31551 0.01318,0.6253 0.08449,0.92939c-0.02813,0 -0.05635,0 -0.08449,0c-0.1106,-0.09496 -0.16687,-0.2217 -0.16898,-0.38021c0.07418,-0.15027 0.07418,-0.29109 0,-0.42245c0.01174,-0.10992 0.06802,-0.18033 0.16898,-0.21123z" opacity="0.592"/><path d="M209.36674,147.77114c0.22111,0.10865 0.41823,0.24946 0.59143,0.42245c-0.26817,-0.04311 -0.46537,-0.18393 -0.59143,-0.42245z" opacity="0.275"/><path d="M201.0867,147.60216c0.09962,0.16398 0.04334,0.27665 -0.16898,0.33796c-0.15588,0.12636 -0.18405,0.26717 -0.08449,0.42245c-0.0499,0.05505 -0.10623,0.11137 -0.16898,0.16898c0.04224,0.02816 0.08449,0.05633 0.12674,0.08449c0.28685,0.01177 0.58256,-0.00232 0.88715,-0.04224c-0.09049,0.07197 -0.17498,0.14237 -0.25347,0.21123c0,0.11265 0,0.22531 0,0.33796c-0.34607,0.01158 -0.62767,-0.11516 -0.8449,-0.38021c-0.08449,-0.01408 -0.16898,-0.02816 -0.25347,-0.04224c-0.12924,0.01182 -0.21372,0.06814 -0.25347,0.16898c-0.08449,0 -0.16898,0 -0.25347,0c-0.08046,-0.13622 -0.10862,-0.26296 -0.08449,-0.38021c-0.16262,0.0114 -0.3316,0.02548 -0.50694,0.04224c-0.02816,0 -0.05633,0 -0.08449,0c0.33796,-0.11265 0.67592,-0.22531 1.01388,-0.33796c0.28649,-0.08696 0.51179,-0.25595 0.67592,-0.50694c0.0937,-0.00481 0.17819,-0.03297 0.25347,-0.08449z"/><path d="M207.00102,147.77114c0.34354,-0.0163 0.6815,0.01185 1.01388,0.08449c-0.22018,0.11405 -0.22018,0.24079 0,0.38021c0.21334,0.01214 0.41045,0.02623 0.59143,0.04224c-0.22931,0.29013 -0.48278,0.3183 -0.76041,0.08449c-0.06675,-0.10935 -0.15124,-0.20792 -0.25347,-0.29571c-0.18225,-0.0066 -0.35123,-0.02068 -0.50694,-0.04224c-0.07486,-0.06971 -0.103,-0.15419 -0.08449,-0.25347z"/><path d="M207.00102,147.77114c-0.0185,0.09928 0.00963,0.18376 0.08449,0.25347c0.15572,0.02156 0.3247,0.03565 0.50694,0.04224c0.10223,0.0878 0.18673,0.18637 0.25347,0.29571c-0.11263,0 -0.16898,0.05633 -0.16898,0.16898c-0.29208,-0.08574 -0.32022,-0.01533 -0.08449,0.21123c-0.13578,-0.00158 -0.27662,-0.01566 -0.42245,-0.04224c0.03481,-0.20891 -0.04968,-0.32156 -0.25347,-0.33796c-0.14177,-0.23738 -0.11364,-0.43453 0.08449,-0.59143z"/><path d="M211.22553,148.70053c-0.05635,-0.02816 -0.11263,-0.05633 -0.16898,-0.08449c-0.18038,-0.3376 -0.44797,-0.4221 -0.80266,-0.25347c-0.14355,0.00958 -0.24215,-0.04674 -0.29571,-0.16898c0.23885,0.11833 0.46419,0.09017 0.67592,-0.08449c0.28532,0.11635 0.48253,0.31349 0.59143,0.59143z" opacity="0.514"/><path d="M210.38063,148.86952c-0.2713,0.19772 -0.58112,0.31037 -0.92939,0.33796c0,-0.16898 0,-0.33796 0,-0.50694c-0.10688,-0.14962 -0.23362,-0.29043 -0.38021,-0.42245c-0.10654,0.02189 -0.19103,0.07822 -0.25347,0.16898c-0.0795,0.18819 -0.1781,0.35717 -0.29571,0.50694c-0.13079,0.02714 -0.18714,0.11163 -0.16898,0.25347c-0.20303,-0.00904 -0.3579,0.07545 -0.4647,0.25347c-0.17303,-0.16949 -0.13079,-0.25398 0.12674,-0.25347c-0.00667,-0.12086 0.02146,-0.23351 0.08449,-0.33796c-0.128,-0.13368 -0.26876,-0.24633 -0.42245,-0.33796c0,-0.11265 0.05635,-0.16898 0.16898,-0.16898c0.27763,0.23381 0.53111,0.20564 0.76041,-0.08449c0.03904,-0.11659 0.12353,-0.17292 0.25347,-0.16898c0.16501,0.05539 0.33399,0.08355 0.50694,0.08449c0.09058,0.28575 0.18909,0.56739 0.29571,0.8449c0.20844,-0.07363 0.4478,-0.12996 0.71817,-0.16898z"/><path d="M202.26957,148.61604c-0.00803,0.19312 -0.06438,0.3621 -0.16898,0.50694c-0.1634,-0.21614 -0.38874,-0.32879 -0.67592,-0.33796c0.07849,-0.06885 0.16298,-0.13926 0.25347,-0.21123c-0.30459,0.03993 -0.6003,0.05401 -0.88715,0.04224c-0.04224,-0.02816 -0.08449,-0.05633 -0.12674,-0.08449c0.06275,-0.0576 0.11908,-0.11394 0.16898,-0.16898c0.22238,-0.29701 0.48988,-0.32517 0.80266,-0.08449c0.14397,-0.04005 0.29893,-0.05413 0.4647,-0.04224c-0.13578,-0.08863 -0.19205,-0.21536 -0.16898,-0.38021c0.1117,-0.01436 0.21029,0.01381 0.29571,0.08449c0.04199,0.22356 0.0561,0.44887 0.04224,0.67592z"/><path d="M205.05774,147.85563c-0.02619,0.27148 0.00194,0.52495 0.08449,0.76041c0,0.05633 0,0.11265 0,0.16898c-0.07579,-0.09278 -0.14617,-0.09278 -0.21123,0c-0.0893,0.334 -0.21604,0.6438 -0.38021,0.92939c-0.11263,0 -0.22534,0 -0.33796,0c0.07131,-0.23273 0.1558,-0.45804 0.25347,-0.67592c-0.15656,-0.30442 -0.07207,-0.51564 0.25347,-0.63368c-0.06802,-0.09401 -0.12437,-0.19259 -0.16898,-0.29571c0.0915,0.00333 0.17599,0.0315 0.25347,0.08449c0.04706,-0.15475 0.13155,-0.2674 0.25347,-0.33796z"/><path d="M208.0149,147.85563c0.3917,0.05482 0.78593,0.09707 1.18286,0.12674c0.25119,0.11071 0.44839,0.27969 0.59143,0.50694c0.37319,0.01922 0.73929,0.06147 1.09837,0.12674c0.12387,0.18038 0.10984,0.34936 -0.04224,0.50694c-0.06582,-0.10377 -0.15031,-0.18826 -0.25347,-0.25347c-0.09556,-0.07057 -0.16594,-0.07057 -0.21123,0c-0.27037,0.03902 -0.50973,0.09535 -0.71817,0.16898c-0.10663,-0.27752 -0.20514,-0.55916 -0.29571,-0.8449c-0.17295,-0.00094 -0.34193,-0.0291 -0.50694,-0.08449c-0.12994,-0.00393 -0.21444,0.05239 -0.25347,0.16898c-0.18098,-0.01602 -0.37809,-0.03011 -0.59143,-0.04224c-0.22018,-0.13942 -0.22018,-0.26615 0,-0.38021z"/><path d="M200.15731,148.19359c-0.33796,0.11265 -0.67592,0.22531 -1.01388,0.33796c-0.14499,0.01088 -0.28581,0.03904 -0.42245,0.08449c0.1593,-0.15305 0.35644,-0.25163 0.59143,-0.29571c0.28113,-0.05157 0.56276,-0.09381 0.8449,-0.12674z" opacity="0.298"/><path d="M204.5508,148.1091c0.04461,0.10313 0.10097,0.2017 0.16898,0.29571c-0.32554,0.11803 -0.41003,0.32926 -0.25347,0.63368c-0.23691,0.05518 -0.46216,0.08335 -0.67592,0.08449c-0.02813,0 -0.05635,0 -0.08449,0c0,-0.02816 0,-0.05633 0,-0.08449c0,-0.02816 0,-0.05633 0,-0.08449c0.22517,-0.19732 0.33779,-0.4508 0.33796,-0.76041c0.16484,0.02309 0.29158,-0.03324 0.38021,-0.16898c0.03236,0.04698 0.0746,0.07514 0.12674,0.08449z"/><path d="M198.72098,148.61604c-0.02816,0.05633 -0.05633,0.11265 -0.08449,0.16898c-0.09336,0.09298 -0.20601,0.1493 -0.33796,0.16898c0.09164,-0.17632 0.23245,-0.28897 0.42245,-0.33796z" opacity="0.412"/><path d="M209.45124,148.70053c-0.21216,-0.07439 -0.353,0.01009 -0.42245,0.25347c-0.12902,-0.00617 -0.21351,0.05016 -0.25347,0.16898c-0.12817,0.0009 -0.22677,0.05722 -0.29571,0.16898c-0.04892,-0.12069 -0.03481,-0.23334 0.04224,-0.33796c0.11761,-0.14977 0.21621,-0.31875 0.29571,-0.50694c0.06244,-0.09076 0.14693,-0.14709 0.25347,-0.16898c0.14659,0.13202 0.27333,0.27284 0.38021,0.42245z"/><path d="M205.14223,148.78502c0.02813,0 0.05635,0 0.08449,0c0,0.14082 0,0.28163 0,0.42245c-0.01639,0.20377 -0.12902,0.28826 -0.33796,0.25347c-0.01132,0.15136 0.01681,0.29218 0.08449,0.42245c-0.05635,0 -0.11263,0 -0.16898,0c-0.06675,-0.07615 -0.15124,-0.13247 -0.25347,-0.16898c0.16417,-0.28559 0.2909,-0.59539 0.38021,-0.92939c0.06506,-0.09278 0.13544,-0.09278 0.21123,0z"/><path d="M199.81935,148.86952c-0.53677,-0.19548 -0.70574,-0.0265 -0.50694,0.50694c-0.08222,0.20682 -0.11038,0.43214 -0.08449,0.67592c-0.25243,-0.01448 -0.42141,0.09817 -0.50694,0.33796c-0.08158,-0.16019 -0.10975,-0.32918 -0.08449,-0.50694c0,-0.19714 0,-0.39429 0,-0.59143c0.20118,0.1124 0.39832,0.09831 0.59143,-0.04224c-0.08581,-0.04388 -0.14213,-0.11429 -0.16898,-0.21123c0.04027,-0.17714 0.0966,-0.34611 0.16898,-0.50694c0.17534,-0.01676 0.34432,-0.03085 0.50694,-0.04224c-0.02413,0.11725 0.00403,0.24398 0.08449,0.38021z"/><path d="M205.22672,148.78502c0.13595,0.37874 0.30493,0.74487 0.50694,1.09837c-0.2522,-0.16788 -0.42118,-0.39319 -0.50694,-0.67592c0,-0.14082 0,-0.28163 0,-0.42245z" opacity="0.341"/><path d="M211.31002,148.86952c0.14887,0.0644 0.23336,0.17706 0.25347,0.33796c-0.14887,-0.0644 -0.23336,-0.17706 -0.25347,-0.33796z" opacity="0.365"/><path d="M199.81935,148.86952c0.08449,0 0.16898,0 0.25347,0c0.45807,-0.07776 0.59888,0.09122 0.42245,0.50694c-0.16178,-0.02404 -0.30259,0.00413 -0.42245,0.08449c-0.16,0.2533 -0.35715,0.47861 -0.59143,0.67592c-0.121,-0.23888 -0.17733,-0.49235 -0.16898,-0.76041c-0.19881,-0.53345 -0.02982,-0.70243 0.50694,-0.50694z"/><path d="M201.42467,148.78502c0.28718,0.00917 0.51252,0.12182 0.67592,0.33796c0,0.08449 0,0.16898 0,0.25347c-0.08449,0.02816 -0.14085,0.08449 -0.16898,0.16898c-0.06877,0.18005 -0.11102,0.3772 -0.12674,0.59143c-0.03236,-0.04698 -0.0746,-0.07514 -0.12674,-0.08449c-0.09396,-0.30566 -0.17844,-0.61545 -0.25347,-0.92939c0,-0.11265 0,-0.22531 0,-0.33796z"/><path d="M206.91653,148.36257c0.20379,0.0164 0.28828,0.12905 0.25347,0.33796c0.14583,0.02658 0.28667,0.04066 0.42245,0.04224c-0.23573,-0.22655 -0.20759,-0.29697 0.08449,-0.21123c0.15369,0.09163 0.29445,0.20428 0.42245,0.33796c-0.06303,0.10445 -0.09117,0.2171 -0.08449,0.33796c-0.25753,-0.0005 -0.29977,0.08398 -0.12674,0.25347c0.10679,-0.17802 0.26167,-0.26251 0.4647,-0.25347c-0.01817,-0.14184 0.03819,-0.22633 0.16898,-0.25347c-0.07706,0.10461 -0.09117,0.21727 -0.04224,0.33796c0.06894,-0.11176 0.16755,-0.16809 0.29571,-0.16898c0.1411,0.29596 0.05661,0.45086 -0.25347,0.4647c0.02813,-0.02816 0.05635,-0.05633 0.08449,-0.08449c-0.18689,-0.06667 -0.35587,-0.05259 -0.50694,0.04224c-0.20894,0.01994 -0.34979,0.13259 -0.42245,0.33796c-0.14574,-0.13447 -0.23024,-0.10631 -0.25347,0.08449c-0.08449,0.02816 -0.14085,0.08449 -0.16898,0.16898c-0.10595,-0.28337 -0.10595,-0.57908 0,-0.88715c-0.10232,-0.30253 -0.21495,-0.59825 -0.33796,-0.88715z"/><path d="M203.7059,149.03849c0,0.02816 0,0.05633 0,0.08449c-0.02813,0.05633 -0.05635,0.11265 -0.08449,0.16898c-0.02813,0 -0.05635,0 -0.08449,0c-0.00617,-0.12901 0.05019,-0.2135 0.16898,-0.25347z" opacity="0.122"/><path d="M204.46631,149.03849c-0.09767,0.21788 -0.18216,0.44319 -0.25347,0.67592c-0.05543,0.06572 -0.12581,0.12204 -0.21123,0.16898c-0.04224,-0.02816 -0.08449,-0.05633 -0.12674,-0.08449c-0.07545,-0.21833 -0.10359,-0.44364 -0.08449,-0.67592c0.21376,-0.00114 0.43901,-0.02931 0.67592,-0.08449z"/><path d="M206.74755,148.53155c0.02813,0 0.05635,0 0.08449,0c0.27146,0.40448 0.32782,0.84102 0.16898,1.3096c0.08322,0.37641 0.13958,0.75662 0.16898,1.14062c-0.24739,-0.58151 -0.30374,-1.18703 -0.16898,-1.81654c-0.09649,-0.207 -0.18098,-0.41822 -0.25347,-0.63368z" opacity="0.224"/><path d="M199.14343,148.53155c0.02816,0 0.05633,0 0.08449,0c-0.07238,0.16083 -0.12871,0.32981 -0.16898,0.50694c0.02685,0.09694 0.08317,0.16734 0.16898,0.21123c-0.19311,0.14056 -0.39025,0.15464 -0.59143,0.04224c0,-0.16898 0,-0.33796 0,-0.50694c0.02816,-0.05633 0.05633,-0.11265 0.08449,-0.16898c0.13664,-0.04546 0.27746,-0.07362 0.42245,-0.08449z"/><path d="M209.02878,148.954c0,0.08449 0,0.16898 0,0.25347c0.39017,0.00227 0.46064,0.11492 0.21123,0.33796c-0.03498,-0.03865 -0.07722,-0.06681 -0.12674,-0.08449c-0.06438,0.09533 -0.12074,0.19389 -0.16898,0.29571c0.39896,0.14303 0.68057,0.00221 0.8449,-0.42245c0.0801,-0.04079 0.16459,-0.05488 0.25347,-0.04224c-0.38705,0.42924 -0.33078,0.7672 0.16898,1.01388c0.08449,0.02816 0.14085,0.08449 0.16898,0.16898c0.02813,0.05633 0.05635,0.11265 0.08449,0.16898c-0.24063,-0.20443 -0.52223,-0.31709 -0.8449,-0.33796c-0.03971,-0.10084 -0.1242,-0.15716 -0.25347,-0.16898c-0.1427,0.01909 -0.28347,0.04725 -0.42245,0.08449c-0.1155,-0.0613 -0.22812,-0.11762 -0.33796,-0.16898c-0.04926,-0.4145 -0.16197,-0.44266 -0.33796,-0.08449c-0.09176,-0.01014 -0.14811,-0.06647 -0.16898,-0.16898c0.05526,-0.11113 0.05526,-0.19562 0,-0.25347c0.15107,-0.09484 0.32005,-0.10892 0.50694,-0.04224c-0.02813,0.02816 -0.05635,0.05633 -0.08449,0.08449c0.31008,-0.01384 0.39457,-0.16874 0.25347,-0.4647c0.03996,-0.11882 0.12446,-0.17515 0.25347,-0.16898z"/><path d="M210.38063,149.12299c0.08382,-0.0145 0.14008,0.01367 0.16898,0.08449c0.05002,0.22197 0.07816,0.44727 0.08449,0.67592c-0.09632,-0.24228 -0.18081,-0.49575 -0.25347,-0.76041z" opacity="0.11"/><path d="M211.05655,148.61604c0.05635,0.02816 0.11263,0.05633 0.16898,0.08449c0.0708,0.02887 0.09902,0.0852 0.08449,0.16898c0.02011,0.1609 0.1046,0.27355 0.25347,0.33796c-0.01107,0.07405 0.01707,0.13038 0.08449,0.16898c0.32858,0.1499 0.63832,0.31888 0.92939,0.50694c-0.43631,0.01562 -0.8024,-0.1252 -1.09837,-0.42245c-0.08635,0.03004 -0.1427,0.08636 -0.16898,0.16898c-0.02712,0.1308 -0.11161,0.18713 -0.25347,0.16898c0.01327,-0.11604 -0.00084,-0.2287 -0.04224,-0.33796c-0.05999,0.12448 -0.1585,0.1808 -0.29571,0.16898c-0.02265,0.1351 0.00557,0.24776 0.08449,0.33796c0,0.05633 0,0.11265 0,0.16898c-0.05635,-0.02816 -0.11263,-0.05633 -0.16898,-0.08449c0,-0.05633 0,-0.11265 0,-0.16898c-0.00634,-0.22865 -0.03447,-0.45395 -0.08449,-0.67592c0.21216,0.0168 0.39524,0.04496 0.54919,0.08449c0.05086,-0.22986 0.03675,-0.45516 -0.04224,-0.67592z"/><path d="M201.42467,149.12299c0.07503,0.31394 0.15952,0.62373 0.25347,0.92939c-0.18047,-0.22595 -0.37759,-0.45125 -0.59143,-0.67592c-0.10308,0.03269 -0.15939,0.1031 -0.16898,0.21123c0.10198,0.10986 0.15833,0.23659 0.16898,0.38021c-0.11263,0 -0.22531,0 -0.33796,0c-0.0657,-0.37168 -0.29101,-0.54066 -0.67592,-0.50694c0.11986,-0.08036 0.26068,-0.10853 0.42245,-0.08449c0.17643,-0.41573 0.03562,-0.5847 -0.42245,-0.50694c0.03975,-0.10084 0.12423,-0.15716 0.25347,-0.16898c0.08449,0.01408 0.16898,0.02816 0.25347,0.04224c0.21723,0.26505 0.49883,0.39178 0.8449,0.38021z"/><path d="M209.45124,148.70053c0,0.16898 0,0.33796 0,0.50694c0.34827,-0.02758 0.65809,-0.14023 0.92939,-0.33796c0.04529,-0.07057 0.11567,-0.07057 0.21123,0c0.10316,0.06521 0.18765,0.1497 0.25347,0.25347c0.15208,-0.15758 0.16611,-0.32656 0.04224,-0.50694c0.05635,0 0.11263,0 0.16898,0c0.079,0.22076 0.09311,0.44607 0.04224,0.67592c-0.15394,-0.03953 -0.33703,-0.06769 -0.54919,-0.08449c-0.0289,-0.07082 -0.08517,-0.09899 -0.16898,-0.08449c-0.12226,-0.11703 -0.20675,-0.08887 -0.25347,0.08449c-0.05635,0 -0.08449,0.02816 -0.08449,0.08449c-0.08889,-0.01263 -0.17337,0.00145 -0.25347,0.04224c-0.16433,0.42466 -0.44594,0.56548 -0.8449,0.42245c0.04824,-0.10182 0.1046,-0.20039 0.16898,-0.29571c0.04951,0.01768 0.09176,0.04585 0.12674,0.08449c0.24942,-0.22305 0.17895,-0.3357 -0.21123,-0.33796c0,-0.08449 0,-0.16898 0,-0.25347c0.06945,-0.24337 0.21029,-0.32786 0.42245,-0.25347z"/><path d="M210.38063,149.12299c-0.0937,0.00481 -0.17819,0.03297 -0.25347,0.08449c0.04672,-0.17336 0.13122,-0.20153 0.25347,-0.08449z" opacity="0.114"/><path d="M200.07282,149.46094c0.38491,-0.03372 0.61022,0.13526 0.67592,0.50694c-0.02816,0 -0.05633,0 -0.08449,0c-0.14165,0.05774 -0.19798,0.1704 -0.16898,0.33796c-0.08449,0 -0.16898,0 -0.25347,0c-0.13031,-0.05414 -0.24297,-0.13863 -0.33796,-0.25347c0.0697,-0.19444 0.12602,-0.39158 0.16898,-0.59143z"/><path d="M198.63649,148.78502c0,0.16898 0,0.33796 0,0.50694c0,0.19714 0,0.39429 0,0.59143c-0.0818,0.17805 -0.10997,0.3752 -0.08449,0.59143c-0.04965,0.21869 -0.19046,0.35951 -0.42245,0.42245c-0.02816,-0.02816 -0.05633,-0.05633 -0.08449,-0.08449c0.22815,-0.20444 0.3408,-0.45791 0.33796,-0.76041c-0.08219,-0.30747 -0.27933,-0.47645 -0.59143,-0.50694c0.16898,-0.19714 0.33796,-0.39429 0.50694,-0.59143c0.13196,-0.01968 0.24461,-0.076 0.33796,-0.16898z"/><path d="M203.53692,149.29197c0.0321,0.18571 -0.02425,0.32652 -0.16898,0.42245c0.02501,-0.16079 0.08136,-0.30161 0.16898,-0.42245z" opacity="0.553"/><path d="M211.56349,149.20747c0.3639,0.18194 0.72999,0.36501 1.09837,0.54919c0.13865,0.09539 0.22314,0.22212 0.25347,0.38021c-0.02813,0 -0.05635,0 -0.08449,0c-0.05635,-0.11265 -0.14085,-0.19714 -0.25347,-0.25347c-0.29107,-0.18806 -0.60081,-0.35704 -0.92939,-0.50694c-0.06742,-0.0386 -0.09556,-0.09493 -0.08449,-0.16898z" opacity="0.227"/><path d="M198.29852,148.954c-0.16898,0.19714 -0.33796,0.39429 -0.50694,0.59143c-0.31498,0.25844 -0.65294,0.48376 -1.01388,0.67592c-0.02816,0 -0.05633,0 -0.08449,0c0.54973,-0.40189 1.08483,-0.82434 1.60531,-1.26735z" opacity="0.333"/><path d="M205.22672,149.20747c0.08576,0.28273 0.25474,0.50804 0.50694,0.67592c0.0708,0.02887 0.09902,0.0852 0.08449,0.16898c0.02619,0.27148 -0.00194,0.52495 -0.08449,0.76041c0.0501,-0.35311 -0.03439,-0.6629 -0.25347,-0.92939c-0.15428,0.0355 -0.32326,0.0355 -0.50694,0c-0.06768,-0.13027 -0.09581,-0.27109 -0.08449,-0.42245c0.20894,0.03479 0.32157,-0.0497 0.33796,-0.25347z"/><path d="M203.7059,149.12299c0.02813,0 0.05635,0 0.08449,0c-0.01909,0.23228 0.00904,0.45759 0.08449,0.67592c0.04224,0.02816 0.08449,0.05633 0.12674,0.08449c0.08542,-0.04695 0.1558,-0.10326 0.21123,-0.16898c0.11263,0 0.22534,0 0.33796,0c0.10223,0.03651 0.18673,0.09283 0.25347,0.16898c0.02552,0.21624 -0.0027,0.41337 -0.08449,0.59143c0,-0.08449 0,-0.16898 0,-0.25347c-0.27434,-0.00716 -0.51379,0.07732 -0.71817,0.25347c-0.32149,-0.3206 -0.44822,-0.7149 -0.38021,-1.18286c0.02813,-0.05633 0.05635,-0.11265 0.08449,-0.16898z"/><path d="M211.31002,149.62993c0.25541,-0.03335 0.33991,0.05113 0.25347,0.25347c0.05855,0.086 0.11482,0.17048 0.16898,0.25347c-0.12327,-0.0057 -0.2359,0.02246 -0.33796,0.08449c-0.26826,0.04991 -0.46546,-0.03458 -0.59143,-0.25347c-0.07891,-0.0902 -0.10713,-0.20286 -0.08449,-0.33796c0.13721,0.01182 0.23573,-0.0445 0.29571,-0.16898c0.0414,0.10926 0.05551,0.22192 0.04224,0.33796c0.14186,0.01815 0.22635,-0.03818 0.25347,-0.16898z"/><path d="M208.09939,149.54544c0.05526,0.05785 0.05526,0.14234 0,0.25347c0.02087,0.10251 0.07722,0.15884 0.16898,0.16898c0.08263,0.02628 0.13899,0.08261 0.16898,0.16898c-0.27392,0.01257 -0.55552,0.06889 -0.8449,0.16898c0.0229,-0.15881 -0.03346,-0.27146 -0.16898,-0.33796c0.02324,-0.1908 0.10773,-0.21897 0.25347,-0.08449c0.07266,-0.20537 0.21351,-0.31802 0.42245,-0.33796z"/><path d="M210.12716,149.20747c-0.03582,0.24114 -0.12031,0.46644 -0.25347,0.67592c0.11465,0.14242 0.22728,0.28324 0.33796,0.42245c-0.49976,-0.24668 -0.55603,-0.58464 -0.16898,-1.01388c0,-0.05633 0.02813,-0.08449 0.08449,-0.08449z" opacity="0.039"/><path d="M212.57737,149.8834c0.11263,0.05633 0.19712,0.14082 0.25347,0.25347c-0.01766,0.12012 -0.0599,0.23277 -0.12674,0.33796c-0.20117,-0.079 -0.4124,-0.10716 -0.63368,-0.08449c0,0.11265 0,0.22531 0,0.33796c-0.07528,0.05152 -0.15977,0.07968 -0.25347,0.08449c0.14583,-0.19603 0.20219,-0.42133 0.16898,-0.67592c-0.08449,0 -0.16898,0 -0.25347,0c-0.05416,-0.08299 -0.11043,-0.16748 -0.16898,-0.25347c0.08643,-0.20234 0.00194,-0.28683 -0.25347,-0.25347c0.02628,-0.08262 0.08263,-0.13894 0.16898,-0.16898c0.29597,0.29725 0.66206,0.43807 1.09837,0.42245z"/><path d="M203.36794,149.71442c-0.00777,0.19836 -0.09227,0.33918 -0.25347,0.42245c0.02112,-0.18368 0.10561,-0.32449 0.25347,-0.42245z" opacity="0.867"/><path d="M201.67814,150.05238c0.05213,0.00935 0.09437,0.03751 0.12674,0.08449c0.01571,-0.21423 0.05796,-0.41138 0.12674,-0.59143c0.01242,0.39831 -0.01571,0.79259 -0.08449,1.18286c-0.07638,-0.0599 -0.10451,-0.14439 -0.08449,-0.25347c-0.15884,-0.02289 -0.27146,0.03344 -0.33796,0.16898c-0.05492,0.02568 -0.11127,0.05385 -0.16898,0.08449c-0.06286,-0.12593 -0.11913,-0.25267 -0.16898,-0.38021c-0.10553,-0.06253 -0.19005,-0.04845 -0.25347,0.04224c-0.14837,-0.08889 -0.20469,-0.22971 -0.16898,-0.42245c0.02816,0 0.05633,0 0.08449,0c0.11265,0 0.22534,0 0.33796,0c-0.01064,-0.14361 -0.067,-0.27035 -0.16898,-0.38021c0.00959,-0.10813 0.0659,-0.17854 0.16898,-0.21123c0.21385,0.22467 0.41096,0.44997 0.59143,0.67592z"/><path d="M208.60633,150.05238c0,0.11265 0,0.22531 0,0.33796c0.00253,0.08425 -0.03971,0.14058 -0.12674,0.16898c-0.09099,-0.07853 -0.1896,-0.13486 -0.29571,-0.16898c-0.26209,-0.02923 -0.50145,0.02709 -0.71817,0.16898c-0.04208,0.28024 -0.05619,0.56187 -0.04224,0.8449c0.0076,0.22407 -0.04867,0.42118 -0.16898,0.59143c0,-0.08449 0,-0.16898 0,-0.25347c0,-0.02813 0,-0.05635 0,-0.08449c0.08179,-0.17802 0.11001,-0.37522 0.08449,-0.59143c-0.09708,-0.21467 -0.09708,-0.4259 0,-0.63368c-0.18816,-0.05948 -0.2163,-0.15805 -0.08449,-0.29571c0.02813,-0.08449 0.08449,-0.14082 0.16898,-0.16898c0.13552,0.06649 0.19188,0.17914 0.16898,0.33796c0.28938,-0.10008 0.57098,-0.15641 0.8449,-0.16898c-0.03,-0.08637 -0.08635,-0.1427 -0.16898,-0.16898c0.17599,-0.35817 0.2887,-0.33001 0.33796,0.08449z"/><path d="M212.91533,150.13686c0.23176,0.14695 0.40074,0.3441 0.50694,0.59143c-0.05635,-0.02816 -0.11263,-0.05633 -0.16898,-0.08449c-0.14803,-0.14751 -0.26065,-0.31649 -0.33796,-0.50694z" opacity="0.514"/><path d="M196.69321,150.22136c0.02816,0 0.05633,0 0.08449,0c-0.02816,0.05633 -0.05633,0.11265 -0.08449,0.16898c-0.11265,0.02816 -0.22531,0.05633 -0.33796,0.08449c0,-0.02816 0,-0.05633 0,-0.08449c0.09898,-0.07136 0.21163,-0.12769 0.33796,-0.16898z" opacity="0.867"/><path d="M197.79158,149.54544c0.3121,0.03049 0.50924,0.19947 0.59143,0.50694c-0.05491,-0.02568 -0.11123,-0.05385 -0.16898,-0.08449c-0.09859,0.13342 -0.21124,0.24608 -0.33796,0.33796c-0.20891,-0.03479 -0.32156,0.0497 -0.33796,0.25347c-0.14356,0.01353 -0.28438,-0.00055 -0.42245,-0.04224c0.11164,-0.13049 0.08347,-0.22907 -0.08449,-0.29571c-0.09482,0.09549 -0.20748,0.15182 -0.33796,0.16898c0.02816,-0.05633 0.05633,-0.11265 0.08449,-0.16898c0.36094,-0.19216 0.6989,-0.41748 1.01388,-0.67592z"/><path d="M203.53692,149.29197c0.02813,0 0.05635,0 0.08449,0c-0.06802,0.46797 0.05872,0.86226 0.38021,1.18286c0.20438,-0.17615 0.44383,-0.26063 0.71817,-0.25347c0,0.08449 0,0.16898 0,0.25347c-0.30112,0.12498 -0.61087,0.23764 -0.92939,0.33796c-0.0828,0.21853 -0.11094,0.44383 -0.08449,0.67592c-0.05635,0 -0.11263,0 -0.16898,0c0,-0.05635 0,-0.11263 0,-0.16898c0.08035,-0.11989 0.10848,-0.26068 0.08449,-0.42245c-0.14085,0 -0.2816,0 -0.42245,0c-0.07629,-0.2443 -0.10443,-0.49778 -0.08449,-0.76041c0.16121,-0.08327 0.2457,-0.22409 0.25347,-0.42245c0.14473,-0.09593 0.20109,-0.23674 0.16898,-0.42245z"/><path d="M205.14223,150.13686c0.14887,-0.01206 0.28972,0.0161 0.42245,0.08449c0.08229,0.18949 0.11051,0.38663 0.08449,0.59143c-0.30847,-0.02858 -0.44924,0.11224 -0.42245,0.42245c-0.15884,0.0229 -0.27146,-0.03346 -0.33796,-0.16898c0.15065,-0.05183 0.26327,-0.15041 0.33796,-0.29571c-0.2931,-0.18583 -0.32123,-0.39706 -0.08449,-0.63368z"/><path d="M205.81816,150.05238c0.01977,0.76432 0.01977,1.53882 0,2.32348c-0.02772,0.26927 -0.1122,0.50863 -0.25347,0.71817c0.08423,-0.75729 0.14059,-1.5177 0.16898,-2.28124c0.08254,-0.23547 0.11068,-0.48894 0.08449,-0.76041z" opacity="0.239"/><path d="M208.60633,150.05238c0.10984,0.05136 0.22246,0.10768 0.33796,0.16898c0.13899,-0.03724 0.27975,-0.0654 0.42245,-0.08449c0.12927,0.01182 0.21376,0.06814 0.25347,0.16898c0.18655,0.11976 0.25702,0.28875 0.21123,0.50694c-0.12175,-0.11575 -0.2626,-0.20024 -0.42245,-0.25347c-0.04081,-0.0801 -0.05483,-0.16459 -0.04224,-0.25347c-0.08449,0 -0.16898,0 -0.25347,0c0.01327,0.11604 -0.00084,0.2287 -0.04224,0.33796c-0.11263,-0.11265 -0.22534,-0.22531 -0.33796,-0.33796c-0.03236,0.04698 -0.0746,0.07514 -0.12674,0.08449c0,-0.11265 0,-0.22531 0,-0.33796z"/><path d="M212.83085,150.13686c0.02813,0 0.05635,0 0.08449,0c0.07731,0.19045 0.18993,0.35943 0.33796,0.50694c-0.15183,0.1039 -0.32081,0.16023 -0.50694,0.16898c-0.01014,-0.09177 -0.06649,-0.14809 -0.16898,-0.16898c-0.16501,0.05539 -0.33399,0.08355 -0.50694,0.08449c0,-0.11265 0,-0.22531 0,-0.33796c0.22128,-0.02267 0.4325,0.00549 0.63368,0.08449c0.06683,-0.10519 0.10908,-0.21784 0.12674,-0.33796z"/><path d="M196.35525,150.39034c0,0.02816 0,0.05633 0,0.08449c-0.15185,0.1039 -0.32083,0.16023 -0.50694,0.16898c0.14207,-0.12737 0.31105,-0.21186 0.50694,-0.25347z" opacity="0.243"/><path d="M209.62022,150.30585c0.32267,0.02087 0.60427,0.13353 0.8449,0.33796c0.05771,0.14165 0.17042,0.19798 0.33796,0.16898c0.03692,0.27937 -0.01943,0.53288 -0.16898,0.76041c0.12615,0.05416 0.21063,0.13865 0.25347,0.25347c0.14093,0.16721 0.1972,0.36432 0.16898,0.59143c-0.08449,0 -0.16898,0 -0.25347,0c-0.13535,-0.13299 -0.30434,-0.18934 -0.50694,-0.16898c-0.05796,-0.30577 -0.07199,-0.61551 -0.04224,-0.92939c-0.23826,-0.09302 -0.47771,-0.17755 -0.71817,-0.25347c-0.11989,0.04264 -0.17616,0.12716 -0.16898,0.25347c-0.18284,-0.01867 -0.3236,-0.10316 -0.42245,-0.25347c0.00651,-0.10559 0.06286,-0.176 0.16898,-0.21123c-0.11144,-0.13754 -0.22407,-0.12347 -0.33796,0.04224c-0.09277,-0.09425 -0.19137,-0.09425 -0.29571,0c-0.08026,-0.04413 -0.15073,-0.10046 -0.21123,-0.16898c-0.08745,0.23367 -0.22821,0.28999 -0.42245,0.16898c-0.06202,-0.10206 -0.09015,-0.21471 -0.08449,-0.33796c0.17126,0.0137 0.34024,-0.00038 0.50694,-0.04224c-0.04698,-0.03233 -0.07511,-0.07457 -0.08449,-0.12674c0.10612,0.03412 0.20472,0.09044 0.29571,0.16898c0.08702,-0.0284 0.12927,-0.08473 0.12674,-0.16898c0.05213,-0.00935 0.09437,-0.03751 0.12674,-0.08449c0.11263,0.11265 0.22534,0.22531 0.33796,0.33796c0.0414,-0.10926 0.05551,-0.22192 0.04224,-0.33796c0.08449,0 0.16898,0 0.25347,0c-0.01259,0.08889 0.00144,0.17337 0.04224,0.25347c0.15985,0.05323 0.3007,0.13772 0.42245,0.25347c0.04579,-0.21819 -0.02467,-0.38718 -0.21123,-0.50694z"/><path d="M210.6341,150.05238c0.05635,0.02816 0.11263,0.05633 0.16898,0.08449c0,0.19714 0,0.39429 0,0.59143c-0.12327,0.0057 -0.2359,-0.02246 -0.33796,-0.08449c-0.02813,-0.05633 -0.05635,-0.11265 -0.08449,-0.16898c0.12817,0.0009 0.22677,0.05722 0.29571,0.16898c0.04698,-0.20149 0.03295,-0.39863 -0.04224,-0.59143z" opacity="0.141"/><path d="M198.63649,149.8834c-0.02525,0.17777 0.00291,0.34675 0.08449,0.50694c0.08553,-0.23979 0.25451,-0.35244 0.50694,-0.33796c0.05396,0.05043 0.08213,0.12084 0.08449,0.21123c-0.07757,0.17629 -0.13389,0.35935 -0.16898,0.54919c0.42573,-0.00413 0.43981,0.05219 0.04224,0.16898c-0.05215,0.08019 -0.03807,0.1506 0.04224,0.21123c0.16667,0.04182 0.33565,0.05593 0.50694,0.04224c-0.09508,0.13764 -0.20773,0.26437 -0.33796,0.38021c0.07841,0.03278 0.13473,0.08914 0.16898,0.16898c-0.12854,0.34219 -0.10038,0.66604 0.08449,0.97164c0,0.08449 0,0.16898 0,0.25347c-0.07896,-0.09024 -0.10712,-0.20286 -0.08449,-0.33796c-0.11265,0 -0.22531,0 -0.33796,0c-0.03027,-0.33872 -0.07252,-0.67668 -0.12674,-1.01388c-0.04224,-0.0986 -0.11265,-0.16898 -0.21123,-0.21123c0.07437,-0.11457 0.10253,-0.2413 0.08449,-0.38021c-0.01987,-0.05042 -0.06212,-0.07858 -0.12674,-0.08449c-0.09099,0.07853 -0.18956,0.13486 -0.29571,0.16898c0.07363,-0.21645 0.07363,-0.44175 0,-0.67592c-0.02548,-0.21624 0.00269,-0.41337 0.08449,-0.59143z"/><path d="M199.31241,149.37646c-0.00835,0.26806 0.04797,0.52153 0.16898,0.76041c0.23428,-0.19731 0.43143,-0.42262 0.59143,-0.67592c-0.04295,0.19985 -0.09928,0.39699 -0.16898,0.59143c0.09499,0.11484 0.20765,0.19933 0.33796,0.25347c0.0902,0.07896 0.20286,0.10712 0.33796,0.08449c0,0.11265 0,0.22531 0,0.33796c-0.26107,-0.1651 -0.45822,-0.10877 -0.59143,0.16898c0.2091,0.03922 0.37809,0.12371 0.50694,0.25347c0,0.02816 0,0.05635 0,0.08449c-0.25347,0 -0.50694,0 -0.76041,0c-0.17129,0.01369 -0.34027,-0.00042 -0.50694,-0.04224c-0.08032,-0.06062 -0.09439,-0.13103 -0.04224,-0.21123c0.39757,-0.11679 0.38349,-0.17311 -0.04224,-0.16898c0.03509,-0.18983 0.09141,-0.3729 0.16898,-0.54919c-0.00237,-0.09039 -0.03053,-0.1608 -0.08449,-0.21123c-0.02589,-0.24379 0.00228,-0.4691 0.08449,-0.67592z"/><path d="M200.66425,149.96789c-0.03572,0.19274 0.02062,0.33356 0.16898,0.42245c-0.06072,0.18545 0.02378,0.31219 0.25347,0.38021c-0.07739,0.02352 -0.13371,0.06577 -0.16898,0.12674c-0.20775,-0.01605 -0.34857,0.06844 -0.42245,0.25347c-0.12885,-0.12976 -0.29784,-0.21425 -0.50694,-0.25347c0.13322,-0.27776 0.33037,-0.33408 0.59143,-0.16898c0,-0.11265 0,-0.22531 0,-0.33796c-0.1351,0.02263 -0.24776,-0.00553 -0.33796,-0.08449c0.08449,0 0.16898,0 0.25347,0c-0.029,-0.16756 0.02733,-0.28022 0.16898,-0.33796z"/><path d="M212.74635,150.81279c0.03532,0.06097 0.09159,0.10321 0.16898,0.12674c-0.28972,0.14134 -0.37421,0.35258 -0.25347,0.63368c-0.15141,-0.01132 -0.29217,0.01681 -0.42245,0.08449c-0.02813,-0.08449 -0.08449,-0.14085 -0.16898,-0.16898c0.08804,-0.10908 0.18655,-0.10908 0.29571,0c0.05635,-0.22534 0.05635,-0.45061 0,-0.67592c-0.07089,0.09497 -0.16949,0.1513 -0.29571,0.16898c-0.12927,-0.01182 -0.21376,-0.06814 -0.25347,-0.16898c0.0937,-0.00481 0.17819,-0.03297 0.25347,-0.08449c0.17295,-0.00094 0.34193,-0.0291 0.50694,-0.08449c0.10249,0.02088 0.15884,0.07721 0.16898,0.16898z"/><path d="M198.38301,150.05238c0.00284,0.3025 -0.10981,0.55597 -0.33796,0.76041c0.02816,0.02816 0.05633,0.05633 0.08449,0.08449c0.23199,-0.06294 0.37281,-0.20376 0.42245,-0.42245c0.07363,0.23418 0.07363,0.45948 0,0.67592c-0.20526,-0.03248 -0.4024,-0.0888 -0.59143,-0.16898c0.02263,-0.1351 -0.00553,-0.24776 -0.08449,-0.33796c0,-0.11265 0,-0.22531 0,-0.33796c0.12672,-0.09188 0.23937,-0.20453 0.33796,-0.33796c0.05775,0.03065 0.11407,0.05881 0.16898,0.08449z"/><path d="M201.84712,150.7283c0,0.36612 0,0.73228 0,1.09837c-0.0757,-0.085 -0.13197,-0.085 -0.16898,0c-0.09928,0.0185 -0.18376,-0.00963 -0.25347,-0.08449c0.134,-0.14135 0.19036,-0.31033 0.16898,-0.50694c-0.03937,-0.14374 -0.03937,-0.27047 0,-0.38021c-0.10612,-0.03523 -0.16248,-0.10563 -0.16898,-0.21123c0.06649,-0.13554 0.17912,-0.19187 0.33796,-0.16898c-0.02002,0.10908 0.00811,0.19357 0.08449,0.25347z"/><path d="M203.11447,150.13686c-0.01994,0.26264 0.0082,0.51611 0.08449,0.76041c-0.28752,-0.22167 -0.31566,-0.47515 -0.08449,-0.76041z" opacity="0.106"/><path d="M204.80427,149.8834c0.05635,0 0.11263,0 0.16898,0c0.0365,0.10219 0.09286,0.18668 0.16898,0.25347c-0.23674,0.23662 -0.2086,0.44785 0.08449,0.63368c-0.07469,0.1453 -0.18732,0.24388 -0.33796,0.29571c-0.12277,-0.14608 -0.29174,-0.23057 -0.50694,-0.25347c-0.1433,0.31225 -0.36855,0.53753 -0.67592,0.67592c-0.02644,-0.2321 0.00169,-0.45739 0.08449,-0.67592c0.31853,-0.10032 0.62827,-0.21298 0.92939,-0.33796c0.08179,-0.17805 0.11001,-0.3752 0.08449,-0.59143z"/><path d="M210.80308,149.96789c0.12597,0.21889 0.32318,0.30338 0.59143,0.25347c-0.03785,0.2309 -0.15048,0.41395 -0.33796,0.54919c0.05635,0.02816 0.11263,0.05633 0.16898,0.08449c-0.10697,0.02615 -0.20556,0.06839 -0.29571,0.12674c-0.02349,-0.07737 -0.06573,-0.13371 -0.12674,-0.16898c-0.16755,0.029 -0.28025,-0.02733 -0.33796,-0.16898c0.10206,0.06202 0.21469,0.09019 0.33796,0.08449c0,-0.19714 0,-0.39429 0,-0.59143c0,-0.05633 0,-0.11265 0,-0.16898z"/><path d="M195.84831,150.64381c-0.13057,0.2279 -0.07424,0.39688 0.16898,0.50694c0.02816,0.05635 0.05633,0.11263 0.08449,0.16898c-0.20162,-0.07376 -0.3706,-0.20052 -0.50694,-0.38021c0.04007,-0.14605 0.12457,-0.24462 0.25347,-0.29571z" opacity="0.639"/><path d="M204.88876,151.06626c0.06649,0.13552 0.17912,0.19188 0.33796,0.16898c-0.07106,0.15876 -0.09928,0.32774 -0.08449,0.50694c-0.16999,-0.04343 -0.33898,-0.05745 -0.50694,-0.04224c0.11263,0.19712 0.22534,0.39432 0.33796,0.59143c-0.04698,0.03236 -0.07511,0.0746 -0.08449,0.12674c-0.14085,0 -0.2816,0 -0.42245,0c-0.00194,-0.20506 -0.04419,-0.40218 -0.12674,-0.59143c-0.0414,0.10925 -0.05551,0.22196 -0.04224,0.33796c-0.46326,0.01521 -0.66046,-0.21013 -0.59143,-0.67592c0.30738,-0.13839 0.53263,-0.36367 0.67592,-0.67592c0.2152,0.0229 0.38418,0.10739 0.50694,0.25347z"/><path d="M208.9443,151.06626c-0.10435,0.01871 -0.18883,0.07503 -0.25347,0.16898c-0.10544,-0.04564 -0.20404,-0.10197 -0.29571,-0.16898c-0.05898,0.10059 -0.12935,0.18512 -0.21123,0.25347c-0.06489,-0.06446 -0.10713,-0.14892 -0.12674,-0.25347c-0.08542,0.07068 -0.18402,0.09885 -0.29571,0.08449c-0.02002,-0.10908 0.00811,-0.19357 0.08449,-0.25347c0.19424,0.12101 0.335,0.06469 0.42245,-0.16898c0.06049,0.06852 0.13096,0.12485 0.21123,0.16898c0.10435,-0.09425 0.20294,-0.09425 0.29571,0c0.11389,-0.16571 0.22652,-0.17978 0.33796,-0.04224c-0.10612,0.03523 -0.16248,0.10563 -0.16898,0.21123z"/><path d="M197.53812,150.55932c-0.14158,0.19717 -0.33872,0.28167 -0.59143,0.25347c-0.03637,0.28407 0.04812,0.52342 0.25347,0.71817c-0.0193,0.03371 -0.04746,0.04774 -0.08449,0.04224c-0.05633,0 -0.08449,-0.02813 -0.08449,-0.08449c-0.16019,-0.13037 -0.31509,-0.27113 -0.4647,-0.42245c-0.02816,0.02816 -0.05633,0.05633 -0.08449,0.08449c-0.14648,-0.06327 -0.30137,-0.10552 -0.4647,-0.12674c0.17621,-0.26985 0.40152,-0.48107 0.67592,-0.63368c0.13048,-0.01716 0.24314,-0.07349 0.33796,-0.16898c0.16796,0.06664 0.19613,0.16522 0.08449,0.29571c0.13807,0.04169 0.27889,0.05578 0.42245,0.04224z"/><path d="M197.87607,150.64381c0.07896,0.0902 0.10712,0.20286 0.08449,0.33796c0.18903,0.08018 0.38617,0.1365 0.59143,0.16898c0.10615,-0.03412 0.20473,-0.09044 0.29571,-0.16898c0.06462,0.00591 0.10686,0.03408 0.12674,0.08449c-0.19639,0.15014 -0.4217,0.23463 -0.67592,0.25347c0.01436,0.1117 -0.01381,0.21029 -0.08449,0.29571c0.46388,-0.03135 0.60469,0.15175 0.42245,0.54919c0.03245,-0.18292 -0.02388,-0.32377 -0.16898,-0.42245c-0.06915,0.22027 -0.11139,0.4456 -0.12674,0.67592c-0.08545,0.07072 -0.18401,0.09885 -0.29571,0.08449c-0.03633,-0.27983 -0.17715,-0.49106 -0.42245,-0.63368c0.05726,-0.32841 0.14175,-0.65227 0.25347,-0.97164c-0.0386,-0.06738 -0.09493,-0.09555 -0.16898,-0.08449c0.02816,-0.08449 0.08449,-0.14082 0.16898,-0.16898z"/><path d="M213.2533,150.64381c0.05635,0.02816 0.11263,0.05633 0.16898,0.08449c0.00329,0.09152 0.03151,0.17601 0.08449,0.25347c-0.05855,0.086 -0.11482,0.17048 -0.16898,0.25347c-0.0289,0.0708 -0.08517,0.09902 -0.16898,0.08449c-0.16087,0.02011 -0.27358,0.1046 -0.33796,0.25347c-0.03996,0.1188 -0.12446,0.17515 -0.25347,0.16898c-0.2631,0.00465 -0.4603,0.11727 -0.59143,0.33796c-0.08449,0 -0.16898,0 -0.25347,0c0,-0.05635 0,-0.11263 0,-0.16898c0.19298,-0.04013 0.36195,-0.12462 0.50694,-0.25347c0.13028,-0.06768 0.27105,-0.09581 0.42245,-0.08449c-0.12074,-0.2811 -0.03625,-0.49233 0.25347,-0.63368c-0.07739,-0.02352 -0.13366,-0.06577 -0.16898,-0.12674c0.18613,-0.00875 0.35511,-0.06508 0.50694,-0.16898z"/><path d="M196.69321,150.39034c-0.2744,0.1526 -0.49971,0.36383 -0.67592,0.63368c0.16332,0.02122 0.31821,0.06346 0.4647,0.12674c0.02816,-0.02816 0.05633,-0.05633 0.08449,-0.08449c0.14961,0.15132 0.3045,0.29208 0.4647,0.42245c-0.3664,-0.02873 -0.70436,-0.14135 -1.01388,-0.33796c-0.24322,-0.11006 -0.29955,-0.27904 -0.16898,-0.50694c0.18612,-0.00875 0.35509,-0.06508 0.50694,-0.16898c0.11265,-0.02816 0.22531,-0.05633 0.33796,-0.08449z"/><path d="M203.19896,150.89728c0.14085,0 0.2816,0 0.42245,0c0.024,0.16178 -0.00414,0.30256 -0.08449,0.42245c0,-0.11263 0,-0.22531 0,-0.33796c-0.1351,0.02263 -0.24773,-0.00553 -0.33796,-0.08449z" opacity="0.09"/><path d="M201.42467,150.64381c0.00651,0.10559 0.06286,0.176 0.16898,0.21123c-0.03937,0.10974 -0.03937,0.23647 0,0.38021c-0.15217,0.10629 -0.2789,0.24705 -0.38021,0.42245c-0.02349,-0.07739 -0.06573,-0.13366 -0.12674,-0.16898c-0.01867,-0.21689 -0.07503,-0.41405 -0.16898,-0.59143c0.03528,-0.06097 0.09159,-0.10321 0.16898,-0.12674c-0.2297,-0.06802 -0.31419,-0.19475 -0.25347,-0.38021c0.06342,-0.0907 0.14794,-0.10478 0.25347,-0.04224c0.04985,0.12754 0.10612,0.25427 0.16898,0.38021c0.05771,-0.03065 0.11406,-0.05881 0.16898,-0.08449z"/><path d="M202.10059,149.37646c-0.04562,0.82764 -0.07376,1.67254 -0.08449,2.53471c-0.05635,-0.02813 -0.11263,-0.05635 -0.16898,-0.08449c0,-0.3661 0,-0.73225 0,-1.09837c0.06877,-0.39027 0.09691,-0.78456 0.08449,-1.18286c0.02813,-0.08449 0.08449,-0.14082 0.16898,-0.16898z" opacity="0.468"/><path d="M211.73247,150.13686c0.08449,0 0.16898,0 0.25347,0c0.0332,0.2546 -0.02315,0.4799 -0.16898,0.67592c0.03971,0.10084 0.1242,0.15716 0.25347,0.16898c0.12623,-0.01768 0.22483,-0.074 0.29571,-0.16898c0.05635,0.22531 0.05635,0.45059 0,0.67592c-0.10916,-0.10908 -0.20768,-0.10908 -0.29571,0c-0.16061,-0.00566 -0.31548,0.02256 -0.4647,0.08449c-0.2909,-0.11524 -0.27679,-0.1716 0.04224,-0.16898c-0.01436,-0.1117 0.01377,-0.21029 0.08449,-0.29571c-0.31507,-0.06616 -0.51226,0.06057 -0.59143,0.38021c0.02087,0.10249 0.07722,0.15884 0.16898,0.16898c-0.0959,0.14473 -0.23674,0.20109 -0.42245,0.16898c-0.04284,-0.11482 -0.12733,-0.19931 -0.25347,-0.25347c0.14955,-0.22753 0.2059,-0.48104 0.16898,-0.76041c0.061,0.03528 0.10325,0.0916 0.12674,0.16898c0.09015,-0.05834 0.18875,-0.10058 0.29571,-0.12674c-0.05635,-0.02816 -0.11263,-0.05633 -0.16898,-0.08449c0.18748,-0.13524 0.30011,-0.31829 0.33796,-0.54919c0.10206,-0.06202 0.21469,-0.09019 0.33796,-0.08449z"/><path d="M197.87607,150.30585c0,0.11265 0,0.22531 0,0.33796c-0.08449,0.02816 -0.14082,0.08449 -0.16898,0.16898c-0.1822,0.24807 -0.21035,0.51564 -0.08449,0.80266c-0.14585,0.1117 -0.28667,0.15394 -0.42245,0.12674c-0.07082,-0.0289 -0.09899,-0.08517 -0.08449,-0.16898c0.03702,0.00549 0.06519,-0.00854 0.08449,-0.04224c-0.20536,-0.19475 -0.28984,-0.4341 -0.25347,-0.71817c0.25271,0.02819 0.44985,-0.0563 0.59143,-0.25347c0.0164,-0.20377 0.12905,-0.28826 0.33796,-0.25347z"/><path d="M196.10178,151.31973c0.1609,0.02011 0.27355,0.1046 0.33796,0.25347c-0.1609,-0.02011 -0.27355,-0.1046 -0.33796,-0.25347z" opacity="0.482"/><path d="M208.18388,150.39034c0.00938,0.05217 0.03751,0.09441 0.08449,0.12674c-0.1667,0.04187 -0.33568,0.05594 -0.50694,0.04224c-0.00566,0.12324 0.02247,0.23591 0.08449,0.33796c-0.07638,0.0599 -0.10451,0.14439 -0.08449,0.25347c-0.01107,0.06244 0.00304,0.1188 0.04224,0.16898c0.20506,-0.09015 0.2473,-0.03379 0.12674,0.16898c-0.12817,0.00093 -0.22677,0.0572 -0.29571,0.16898c-0.07199,-0.09049 -0.14236,-0.17498 -0.21123,-0.25347c-0.01394,-0.28303 0.00017,-0.56467 0.04224,-0.8449c0.21672,-0.14188 0.45608,-0.19821 0.71817,-0.16898z"/><path d="M200.91772,150.89728c0.09396,0.17738 0.15031,0.37455 0.16898,0.59143c0,0.11263 0,0.22534 0,0.33796c0.08449,0 0.16898,0 0.25347,0c0.02442,0.26606 -0.01783,0.51953 -0.12674,0.76041c-0.09378,0.12986 -0.22052,0.18613 -0.38021,0.16898c-0.02816,0 -0.05633,0 -0.08449,0c0,-0.08449 0,-0.16898 0,-0.25347c0.11265,0 0.22534,0 0.33796,0c-0.03794,-0.29977 -0.12243,-0.58137 -0.25347,-0.8449c0,-0.11263 0,-0.22534 0,-0.33796c-0.1117,-0.01436 -0.21027,0.01377 -0.29571,0.08449c-0.03923,-0.05019 -0.05331,-0.10654 -0.04224,-0.16898c0,-0.02813 0,-0.05633 0,-0.08449c0.07389,-0.18504 0.2147,-0.26952 0.42245,-0.25347z"/><path d="M207.17,150.98177c0.05635,0.02816 0.11263,0.05633 0.16898,0.08449c0.02552,0.21621 -0.0027,0.41341 -0.08449,0.59143c-0.0714,-0.23421 -0.09962,-0.45946 -0.08449,-0.67592z" opacity="0.263"/><path d="M208.18388,151.31973c-0.06928,0.31929 0.04334,0.51641 0.33796,0.59143c0,0.02813 0,0.05635 0,0.08449c-0.13721,-0.01183 -0.23573,0.04453 -0.29571,0.16898c-0.08229,-0.20092 -0.13865,-0.1727 -0.16898,0.08449c-0.05999,-0.12446 -0.1585,-0.18081 -0.29571,-0.16898c0.05635,-0.19712 0.11263,-0.39432 0.16898,-0.59143c0.12057,-0.20278 0.07832,-0.25913 -0.12674,-0.16898c-0.0392,-0.05019 -0.05331,-0.10654 -0.04224,-0.16898c0.1117,0.01436 0.21029,-0.01381 0.29571,-0.08449c0.0196,0.10455 0.06185,0.18901 0.12674,0.25347z"/><path d="M212.07043,151.48871c0.08449,0.02813 0.14085,0.08449 0.16898,0.16898c-0.14499,0.12885 -0.31397,0.21334 -0.50694,0.25347c-0.13933,-0.08221 -0.28017,-0.1667 -0.42245,-0.25347c-0.09176,-0.01014 -0.14811,-0.06649 -0.16898,-0.16898c0.07916,-0.31964 0.27637,-0.44637 0.59143,-0.38021c-0.07072,0.08542 -0.09885,0.18402 -0.08449,0.29571c-0.31904,-0.00262 -0.33315,0.05374 -0.04224,0.16898c0.14921,-0.06193 0.30408,-0.09015 0.4647,-0.08449z"/><path d="M213.1688,151.31973c-0.06438,0.14887 -0.17709,0.23336 -0.33796,0.25347c0.06438,-0.14887 0.17709,-0.23336 0.33796,-0.25347z" opacity="0.047"/><path d="M199.73486,151.23524c0.25347,0 0.50694,0 0.76041,0c-0.01107,0.06244 0.00302,0.1188 0.04224,0.16898c0.08545,-0.07072 0.18401,-0.09885 0.29571,-0.08449c0,0.11263 0,0.22534 0,0.33796c-0.34998,-0.22703 -0.40631,-0.15664 -0.16898,0.21123c-0.14748,0.32073 -0.2038,0.64457 -0.16898,0.97164c-0.11574,-0.03008 -0.20024,-0.10054 -0.25347,-0.21123c0.09276,-0.20785 0.17725,-0.41907 0.25347,-0.63368c-0.04224,-0.02813 -0.08449,-0.05635 -0.12674,-0.08449c-0.18347,0.18005 -0.35245,0.37725 -0.50694,0.59143c-0.04079,0.0801 -0.05488,0.16459 -0.04224,0.25347c0,0.02813 0,0.05635 0,0.08449c-0.05633,-0.02813 -0.11265,-0.05635 -0.16898,-0.08449c-0.18487,-0.3056 -0.21303,-0.62945 -0.08449,-0.97164c-0.03425,-0.07984 -0.09058,-0.1362 -0.16898,-0.16898c0.13023,-0.11583 0.24288,-0.24257 0.33796,-0.38021z"/><path d="M201.59364,151.23524c0.02137,0.19661 -0.03498,0.36559 -0.16898,0.50694c0.06971,0.07486 0.15419,0.103 0.25347,0.08449c-0.00726,0.08415 0.02096,0.15453 0.08449,0.21123c-0.2653,0.08449 -0.37793,0.26758 -0.33796,0.54919c-0.0708,0.0289 -0.09902,0.08517 -0.08449,0.16898c-0.16898,0.11263 -0.33796,0.11263 -0.50694,0c0.15969,0.01715 0.28642,-0.03912 0.38021,-0.16898c0.10891,-0.24088 0.15115,-0.49435 0.12674,-0.76041c-0.08449,0 -0.16898,0 -0.25347,0c0,-0.11263 0,-0.22534 0,-0.33796c0.061,0.03532 0.10325,0.09159 0.12674,0.16898c0.10131,-0.1754 0.22804,-0.31616 0.38021,-0.42245z"/><path d="M208.9443,151.06626c0.09885,0.15031 0.23961,0.2348 0.42245,0.25347c-0.02265,0.1351 0.00557,0.24773 0.08449,0.33796c0.00253,0.08423 -0.03971,0.14059 -0.12674,0.16898c-0.27975,-0.10282 -0.54724,-0.0746 -0.80266,0.08449c-0.29462,-0.07503 -0.40725,-0.27214 -0.33796,-0.59143c0.08187,-0.06835 0.15225,-0.15288 0.21123,-0.25347c0.09167,0.06701 0.19027,0.12334 0.29571,0.16898c0.06464,-0.09395 0.14912,-0.15027 0.25347,-0.16898z"/><path d="M196.43974,151.5732c0.24446,-0.03963 0.41344,0.04487 0.50694,0.25347c-0.17522,-0.08567 -0.3442,-0.17016 -0.50694,-0.25347z" opacity="0.071"/><path d="M205.64917,150.81279c-0.02096,0.53879 -0.10544,1.04574 -0.25347,1.52083c-0.1683,-0.01453 -0.30907,0.04182 -0.42245,0.16898c-0.05128,-0.01048 -0.07942,-0.03861 -0.08449,-0.08449c0.00938,-0.05213 0.03751,-0.09437 0.08449,-0.12674c-0.11263,-0.19712 -0.22534,-0.39432 -0.33796,-0.59143c0.16796,-0.01521 0.33695,-0.00118 0.50694,0.04224c-0.01479,-0.1792 0.01343,-0.34818 0.08449,-0.50694c-0.02678,-0.31021 0.11398,-0.45103 0.42245,-0.42245z"/><path d="M210.12716,152.24912c-0.16898,0.05635 -0.33796,0.11263 -0.50694,0.16898c-0.06244,0.01107 -0.1188,-0.00304 -0.16898,-0.04224c0.13848,-0.26175 0.25119,-0.52925 0.33796,-0.80266c0.06489,-0.06446 0.10713,-0.14896 0.12674,-0.25347c0.13704,0.29462 0.20742,0.60444 0.21123,0.92939z"/><path d="M198.97445,151.06626c0.01804,0.1389 -0.01012,0.26564 -0.08449,0.38021c0.09858,0.04224 0.16898,0.11263 0.21123,0.21123c0.05422,0.3372 0.09646,0.67516 0.12674,1.01388c0,0.02813 0,0.05635 0,0.08449c-0.12086,0.00667 -0.23351,-0.02146 -0.33796,-0.08449c-0.08043,0.13054 -0.10858,0.27138 -0.08449,0.42245c-0.08449,0 -0.16898,0 -0.25347,0c-0.16467,-0.1743 -0.36181,-0.28693 -0.59143,-0.33796c0.54303,0.14684 0.76834,-0.05027 0.67592,-0.59143c0.18224,-0.39744 0.04143,-0.58053 -0.42245,-0.54919c0.07068,-0.08542 0.09885,-0.18402 0.08449,-0.29571c0.25422,-0.01884 0.47953,-0.10333 0.67592,-0.25347z"/><path d="M210.29614,152.24912c-0.05635,0 -0.11263,0 -0.16898,0c-0.0038,-0.32495 -0.07418,-0.63478 -0.21123,-0.92939c-0.0196,0.10451 -0.06185,0.18901 -0.12674,0.25347c-0.11263,0.02813 -0.22534,0.05635 -0.33796,0.08449c-0.07891,-0.09024 -0.10713,-0.20286 -0.08449,-0.33796c-0.00718,-0.12631 0.04909,-0.21083 0.16898,-0.25347c0.24046,0.07592 0.4799,0.16045 0.71817,0.25347c-0.02974,0.31388 -0.01571,0.62362 0.04224,0.92939z"/><path d="M211.31002,151.65769c0.14228,0.08677 0.28313,0.17126 0.42245,0.25347c0,0.05635 0,0.11263 0,0.16898c-0.07638,0.0599 -0.10451,0.14439 -0.08449,0.25347c-0.16755,-0.02898 -0.28025,0.02738 -0.33796,0.16898c-0.08415,-0.00726 -0.15453,0.02096 -0.21123,0.08449c-0.0392,-0.05019 -0.05331,-0.10654 -0.04224,-0.16898c0.02822,-0.22711 -0.02805,-0.42423 -0.16898,-0.59143c0.18571,0.0321 0.32656,-0.02425 0.42245,-0.16898z"/><path d="M212.57737,151.74218c-0.18275,0.13375 -0.37987,0.24637 -0.59143,0.33796c0.13113,-0.22069 0.32833,-0.33331 0.59143,-0.33796z" opacity="0.22"/><path d="M207.42347,151.40422c0.06886,0.07849 0.13924,0.16298 0.21123,0.25347c0.06894,-0.11178 0.16755,-0.16805 0.29571,-0.16898c-0.05635,0.19712 -0.11263,0.39432 -0.16898,0.59143c0.13721,-0.01183 0.23573,0.04453 0.29571,0.16898c0.03033,-0.25719 0.08669,-0.28541 0.16898,-0.08449c0.05999,-0.12446 0.1585,-0.18081 0.29571,-0.16898c0,0.02813 0,0.05635 0,0.08449c-0.06244,-0.01107 -0.1188,0.00304 -0.16898,0.04224c0.06328,0.14651 0.10553,0.30137 0.12674,0.4647c0.07731,-0.06996 0.13358,-0.15445 0.16898,-0.25347c0.15115,0.14608 0.33424,0.20244 0.54919,0.16898c0.01132,0.15141 -0.01681,0.29217 -0.08449,0.42245c-0.11482,-0.04284 -0.19931,-0.12733 -0.25347,-0.25347c-0.19805,0.1084 -0.4233,0.1084 -0.67592,0c0,0.08449 0,0.16898 0,0.25347c-0.34193,-0.16636 -0.51091,-0.05374 -0.50694,0.33796c-0.11263,-0.02813 -0.22534,-0.05635 -0.33796,-0.08449c-0.05551,-0.33838 -0.08373,-0.70448 -0.08449,-1.09837c0,-0.02813 0,-0.05635 0,-0.08449c0.12031,-0.17025 0.17659,-0.36736 0.16898,-0.59143z"/><path d="M203.53692,151.48871c0.05635,0 0.11263,0 0.16898,0c-0.06903,0.46579 0.12817,0.69113 0.59143,0.67592c-0.01327,-0.11601 0.00084,-0.22872 0.04224,-0.33796c0.08254,0.18926 0.12479,0.38638 0.12674,0.59143c-0.11263,0 -0.16898,0.05635 -0.16898,0.16898c-0.09928,-0.0185 -0.18376,0.00963 -0.25347,0.08449c0.06835,0.13273 0.09657,0.27358 0.08449,0.42245c-0.06523,-0.10088 -0.14972,-0.18537 -0.25347,-0.25347c-0.10257,-0.2898 -0.22931,-0.57149 -0.38021,-0.8449c-0.06666,-0.18689 -0.05255,-0.35587 0.04224,-0.50694z"/><path d="M209.78919,151.5732c-0.08677,0.27341 -0.19948,0.54091 -0.33796,0.80266c0.05019,0.0392 0.10654,0.05331 0.16898,0.04224c0,0.08449 0,0.16898 0,0.25347c-0.12488,0.02214 -0.2375,-0.006 -0.33796,-0.08449c0.10291,-0.11009 0.07478,-0.19458 -0.08449,-0.25347c0.08449,-0.05635 0.16898,-0.11263 0.25347,-0.16898c-0.03701,-0.085 -0.09328,-0.085 -0.16898,0c-0.07486,-0.06971 -0.103,-0.15419 -0.08449,-0.25347c-0.2457,-0.02011 -0.4429,0.06438 -0.59143,0.25347c-0.05128,-0.01048 -0.07942,-0.03861 -0.08449,-0.08449c0,-0.02813 0,-0.05635 0,-0.08449c0,-0.02813 0,-0.05635 0,-0.08449c0.25541,-0.1591 0.52291,-0.18732 0.80266,-0.08449c0.08702,-0.02839 0.12927,-0.08474 0.12674,-0.16898c0.11263,-0.02813 0.22534,-0.05635 0.33796,-0.08449z"/><path d="M201.84712,151.82667c0.10638,0.29918 0.19086,0.609 0.25347,0.92939c-0.02628,0.08263 -0.08263,0.13899 -0.16898,0.16898c-0.20371,-0.07275 -0.37268,-0.18537 -0.50694,-0.33796c-0.03996,-0.2816 0.07266,-0.4647 0.33796,-0.54919c-0.06354,-0.05669 -0.09176,-0.12707 -0.08449,-0.21123c0.03701,-0.085 0.09328,-0.085 0.16898,0z"/><path d="M203.53692,151.31973c0,0.05635 0,0.11263 0,0.16898c-0.0948,0.15107 -0.10891,0.32005 -0.04224,0.50694c0.1509,0.27341 0.27763,0.5551 0.38021,0.8449c-0.22737,-0.29876 -0.42448,-0.62261 -0.59143,-0.97164c0.02856,-0.22043 0.11305,-0.40353 0.25347,-0.54919z" opacity="0.271"/><path d="M209.62022,152.67157c0.14355,0.01352 0.28439,-0.0005 0.42245,-0.04224c-0.18123,-0.06277 -0.19526,-0.13316 -0.04224,-0.21123c0.17067,0.04495 0.24105,0.15757 0.21123,0.33796c-0.21292,0.11981 -0.43825,0.2043 -0.67592,0.25347c-0.13662,0.04546 -0.27747,0.07359 -0.42245,0.08449c0,-0.05635 0,-0.11263 0,-0.16898c0.06768,-0.13028 0.09581,-0.27105 0.08449,-0.42245c-0.21495,0.03346 -0.39803,-0.0229 -0.54919,-0.16898c-0.0354,0.09902 -0.09167,0.18351 -0.16898,0.25347c-0.02121,-0.16332 -0.06345,-0.31819 -0.12674,-0.4647c0.05019,-0.0392 0.10654,-0.05331 0.16898,-0.04224c0.00507,0.04588 0.0332,0.07401 0.08449,0.08449c0.14853,-0.18909 0.34573,-0.27358 0.59143,-0.25347c-0.0185,0.09928 0.00963,0.18376 0.08449,0.25347c0.0757,-0.085 0.13197,-0.085 0.16898,0c-0.08449,0.05635 -0.16898,0.11263 -0.25347,0.16898c0.15926,0.05889 0.1874,0.14338 0.08449,0.25347c0.10046,0.07849 0.21308,0.10663 0.33796,0.08449z"/><path d="M200.83323,151.65769c0.13104,0.26352 0.21554,0.54513 0.25347,0.8449c-0.11263,0 -0.22531,0 -0.33796,0c0,0.08449 0,0.16898 0,0.25347c-0.07452,0.26893 -0.18717,0.5224 -0.33796,0.76041c-0.10981,0.05137 -0.22247,0.10773 -0.33796,0.16898c-0.07958,-0.00913 -0.15,-0.03726 -0.21123,-0.08449c-0.04208,-0.25195 -0.05615,-0.50542 -0.04224,-0.76041c0,-0.02813 0,-0.05635 0,-0.08449c0.15771,0.03844 0.3126,0.0948 0.4647,0.16898c0.09039,-0.00237 0.1608,-0.0305 0.21123,-0.08449c-0.03482,-0.32706 0.02151,-0.65091 0.16898,-0.97164c-0.23733,-0.36787 -0.18101,-0.43825 0.16898,-0.21123z"/><path d="M196.94668,151.82667c0.17641,0.15513 0.28907,0.35224 0.33796,0.59143c-0.17641,-0.15513 -0.28907,-0.35224 -0.33796,-0.59143z" opacity="0.004"/><path d="M197.70709,150.81279c0.07405,-0.01106 0.13038,0.01711 0.16898,0.08449c-0.11172,0.31937 -0.19621,0.64322 -0.25347,0.97164c0.2453,0.14262 0.38612,0.35384 0.42245,0.63368c-0.07638,0.0599 -0.10454,0.14439 -0.08449,0.25347c-0.17633,-0.10781 -0.34531,-0.23454 -0.50694,-0.38021c0.02816,-0.02813 0.05633,-0.05635 0.08449,-0.08449c-0.18872,-0.13839 -0.30137,-0.32149 -0.33796,-0.54919c0.13579,0.02721 0.2766,-0.01504 0.42245,-0.12674c-0.12586,-0.28701 -0.0977,-0.55458 0.08449,-0.80266z"/><path d="M200.49527,152.84055c-0.05043,0.05399 -0.12084,0.08213 -0.21123,0.08449c-0.15209,-0.07418 -0.30699,-0.13054 -0.4647,-0.16898c-0.01263,-0.08889 0.00145,-0.17337 0.04224,-0.25347c0.15449,-0.21418 0.32347,-0.41138 0.50694,-0.59143c0.04224,0.02813 0.08449,0.05635 0.12674,0.08449c-0.07622,0.21461 -0.16071,0.42583 -0.25347,0.63368c0.05324,0.11068 0.13773,0.18115 0.25347,0.21123z"/><path d="M202.10059,152.08015c0.17633,0.09167 0.28895,0.23243 0.33796,0.42245c-0.17633,-0.09167 -0.28895,-0.23243 -0.33796,-0.42245z" opacity="0.184"/><path d="M210.12716,152.24912c0.05635,0 0.11263,0 0.16898,0c0.20261,-0.02036 0.37159,0.03599 0.50694,0.16898c-0.13806,0.09133 -0.25068,0.20404 -0.33796,0.33796c-0.08449,0 -0.16898,0 -0.25347,0c0.02982,-0.18038 -0.04055,-0.29301 -0.21123,-0.33796c-0.15301,0.07807 -0.13899,0.14845 0.04224,0.21123c-0.13806,0.04174 -0.2789,0.05576 -0.42245,0.04224c0,-0.08449 0,-0.16898 0,-0.25347c0.16898,-0.05635 0.33796,-0.11263 0.50694,-0.16898z"/><path d="M211.73247,152.08015c0.08449,0 0.16898,0 0.25347,0c-0.14085,0.19712 -0.30982,0.3661 -0.50694,0.50694c-0.02813,0 -0.05635,0 -0.08449,0c0,-0.05635 -0.02813,-0.08449 -0.08449,-0.08449c0.05771,-0.14161 0.17042,-0.19796 0.33796,-0.16898c-0.02002,-0.10908 0.00811,-0.19357 0.08449,-0.25347z"/><path d="M207.25449,151.74218c0,0.08449 0,0.16898 0,0.25347c0,0.02813 0,0.05635 0,0.08449c-0.15031,0.3459 -0.26293,0.712 -0.33796,1.09837c-0.02813,0 -0.05635,0 -0.08449,0c0.07697,-0.50635 0.21773,-0.98515 0.42245,-1.43633z" opacity="0.235"/><path d="M197.36913,152.58708c0.19,0.049 0.33081,0.16163 0.42245,0.33796c-0.19,-0.049 -0.33081,-0.16163 -0.42245,-0.33796z" opacity="0.518"/><path d="M198.63649,152.16463c0.09242,0.54116 -0.13289,0.73828 -0.67592,0.59143c-0.02005,-0.10908 0.00811,-0.19357 0.08449,-0.25347c0.1117,0.01436 0.21027,-0.01377 0.29571,-0.08449c0.01535,-0.23032 0.05759,-0.45565 0.12674,-0.67592c0.1451,0.09868 0.20143,0.23953 0.16898,0.42245z"/><path d="M196.01729,151.15075c0.30952,0.19661 0.64748,0.30923 1.01388,0.33796c0,0.05635 0.02816,0.08449 0.08449,0.08449c-0.0145,0.08382 0.01367,0.14008 0.08449,0.16898c0.03658,0.2277 0.14923,0.41079 0.33796,0.54919c-0.02816,0.02813 -0.05633,0.05635 -0.08449,0.08449c0.16163,0.14566 0.33061,0.2724 0.50694,0.38021c0.22962,0.05103 0.42676,0.16366 0.59143,0.33796c-0.11265,0 -0.22531,0 -0.33796,0c-0.09593,-0.14473 -0.23674,-0.20109 -0.42245,-0.16898c-0.09164,-0.17633 -0.23245,-0.28895 -0.42245,-0.33796c-0.07082,-0.0289 -0.09899,-0.08517 -0.08449,-0.16898c-0.04889,-0.23919 -0.16154,-0.43631 -0.33796,-0.59143c-0.09351,-0.2086 -0.26249,-0.2931 -0.50694,-0.25347c-0.0644,-0.14887 -0.17706,-0.23336 -0.33796,-0.25347c-0.02816,-0.05635 -0.05633,-0.11263 -0.08449,-0.16898z"/><path d="M205.3957,152.33361c0.00803,0.27011 -0.04833,0.52358 -0.16898,0.76041c-0.09632,0.13054 -0.18081,0.27138 -0.25347,0.42245c-0.02813,0 -0.05635,0 -0.08449,0c0.1111,-0.25516 0.1111,-0.53685 0,-0.8449c-0.25246,-0.01445 -0.42144,0.09818 -0.50694,0.33796c-0.08044,-0.13054 -0.10857,-0.27138 -0.08449,-0.42245c0,-0.11263 0.05635,-0.16898 0.16898,-0.16898c0.14085,0 0.2816,0 0.42245,0c0.00507,0.04588 0.0332,0.07401 0.08449,0.08449c0.11339,-0.12716 0.25415,-0.18351 0.42245,-0.16898z"/><path d="M209.11327,152.92504c0,0.05635 0,0.11263 0,0.16898c-0.16121,-0.03236 -0.28794,-0.11685 -0.38021,-0.25347c-0.09404,0.10232 -0.19264,0.10232 -0.29571,0c-0.07849,0.10046 -0.10663,0.21308 -0.08449,0.33796c0.12488,-0.02214 0.2375,0.006 0.33796,0.08449c-0.10832,0.18622 -0.24916,0.21444 -0.42245,0.08449c-0.17802,-0.08179 -0.37522,-0.11001 -0.59143,-0.08449c-0.00397,-0.3917 0.16501,-0.50432 0.50694,-0.33796c0,-0.08449 0,-0.16898 0,-0.25347c0.25262,0.1084 0.47787,0.1084 0.67592,0c0.05416,0.12615 0.13865,0.21063 0.25347,0.25347z"/><path d="M199.22792,152.75607c-0.11265,0.16898 -0.25347,0.30982 -0.42245,0.42245c-0.10908,0.02002 -0.19357,-0.00811 -0.25347,-0.08449c0.08449,0 0.16898,0 0.25347,0c-0.0241,-0.15107 0.00407,-0.29192 0.08449,-0.42245c0.10445,0.06303 0.2171,0.09117 0.33796,0.08449z"/><path d="M210.80308,152.4181c0.08449,0 0.16898,0 0.25347,0c-0.01107,0.06244 0.00304,0.1188 0.04224,0.16898c0.05669,-0.06354 0.12707,-0.09176 0.21123,-0.08449c0.05635,0 0.08449,0.02813 0.08449,0.08449c-0.14693,0.23176 -0.34413,0.40074 -0.59143,0.50694c0,-0.08449 0,-0.16898 0,-0.25347c-0.1351,0.02265 -0.24773,-0.00557 -0.33796,-0.08449c0.08728,-0.13392 0.1999,-0.24663 0.33796,-0.33796z"/><path d="M200.74874,152.75607c0.02816,0 0.05633,0 0.08449,0c0.16898,0.11263 0.33796,0.11263 0.50694,0c0.10756,0.04875 0.10756,0.10502 0,0.16898c-0.10443,0.06303 -0.21714,0.09117 -0.33796,0.08449c-0.07434,0.17836 -0.07434,0.34734 0,0.50694c-0.17919,-0.01479 -0.34817,0.01343 -0.50694,0.08449c-0.05633,0 -0.08449,-0.02813 -0.08449,-0.08449c0.15079,-0.23801 0.26344,-0.49148 0.33796,-0.76041z"/><path d="M201.42467,152.58708c0.13426,0.15259 0.30324,0.26521 0.50694,0.33796c0.08635,-0.03 0.1427,-0.08635 0.16898,-0.16898c0.04588,0.00507 0.07401,0.0332 0.08449,0.08449c-0.08449,0.11263 -0.16898,0.22534 -0.25347,0.33796c0.02813,0.02813 0.05635,0.05635 0.08449,0.08449c0.17565,-0.22018 0.34464,-0.22018 0.50694,0c0.11702,0.24147 0.08889,0.46673 -0.08449,0.67592c-0.05948,0.1558 -0.17211,0.19805 -0.33796,0.12674c0.02813,-0.02813 0.05635,-0.05635 0.08449,-0.08449c-0.05095,-0.15419 -0.1073,-0.30915 -0.16898,-0.4647c-0.06599,0.10384 -0.10823,0.21646 -0.12674,0.33796c-0.05635,-0.11263 -0.11263,-0.11263 -0.16898,0c-0.01656,-0.1509 -0.08694,-0.26352 -0.21123,-0.33796c-0.17168,0.11144 -0.34067,0.11144 -0.50694,0c-0.07434,-0.1596 -0.07434,-0.32858 0,-0.50694c0.12082,0.00667 0.23353,-0.02146 0.33796,-0.08449c0.10756,-0.06396 0.10756,-0.12023 0,-0.16898c-0.01453,-0.08382 0.01369,-0.14008 0.08449,-0.16898z"/><path d="M204.97325,149.8834c0.18368,0.0355 0.35266,0.0355 0.50694,0c0.21908,0.26649 0.30357,0.57628 0.25347,0.92939c-0.02839,0.76354 -0.08474,1.52395 -0.16898,2.28124c-0.05635,0.02813 -0.11263,0.05635 -0.16898,0.08449c-0.05635,-0.02813 -0.11263,-0.05635 -0.16898,-0.08449c0.12065,-0.23682 0.177,-0.49029 0.16898,-0.76041c0.14803,-0.47509 0.23252,-0.98203 0.25347,-1.52083c0.02603,-0.20481 -0.00219,-0.40194 -0.08449,-0.59143c-0.13273,-0.06838 -0.27358,-0.09655 -0.42245,-0.08449c-0.07613,-0.06679 -0.13248,-0.15128 -0.16898,-0.25347z"/><path d="M197.79158,152.92504c0.18571,-0.0321 0.32652,0.02425 0.42245,0.16898c-0.17345,0.00828 -0.31427,-0.04808 -0.42245,-0.16898z" opacity="0.698"/><path d="M201.84712,151.82667c0.05635,0.02813 0.11263,0.05635 0.16898,0.08449c0.0708,0.0289 0.09902,0.08517 0.08449,0.16898c0.049,0.19002 0.16163,0.33078 0.33796,0.42245c-0.00439,0.20303 0.02374,0.40015 0.08449,0.59143c0,0.05635 0,0.11263 0,0.16898c-0.1623,-0.22018 -0.33128,-0.22018 -0.50694,0c-0.02813,-0.02813 -0.05635,-0.05635 -0.08449,-0.08449c0.08449,-0.11263 0.16898,-0.22534 0.25347,-0.33796c-0.01048,-0.05128 -0.03861,-0.07942 -0.08449,-0.08449c-0.06261,-0.32039 -0.1471,-0.63021 -0.25347,-0.92939z"/><path d="M210.21164,152.75607c0.08449,0 0.16898,0 0.25347,0c0.09024,0.07891 0.20286,0.10713 0.33796,0.08449c0,0.08449 0,0.16898 0,0.25347c-0.43656,0.07021 -0.85901,0.18292 -1.26735,0.33796c0,-0.14085 0,-0.2816 0,-0.42245c0.23767,-0.04917 0.46301,-0.13366 0.67592,-0.25347z"/><path d="M202.43854,152.50259c0.16138,0.24942 0.24587,0.53111 0.25347,0.8449c-0.05635,-0.08449 -0.11263,-0.16898 -0.16898,-0.25347c-0.06075,-0.19129 -0.08889,-0.3884 -0.08449,-0.59143z" opacity="0.475"/><path d="M198.21404,153.09402c0.11265,0 0.22531,0 0.33796,0c0.0599,0.07638 0.14439,0.10451 0.25347,0.08449c-0.20728,0.09674 -0.40442,0.06861 -0.59143,-0.08449z" opacity="0.098"/><path d="M203.87488,152.84055c0.10375,0.0681 0.18824,0.15259 0.25347,0.25347c0,0.02813 0,0.05635 0,0.08449c-0.03616,0.27755 -0.12065,0.53102 -0.25347,0.76041c-0.00287,-0.22804 0.05348,-0.43926 0.16898,-0.63368c-0.08145,-0.14574 -0.1378,-0.3007 -0.16898,-0.4647z" opacity="0.298"/><path d="M211.39451,152.58708c0.02813,0 0.05635,0 0.08449,0c-0.08812,0.21596 -0.22897,0.39905 -0.42245,0.54919c-0.64956,0.29673 -1.29735,0.59245 -1.94328,0.88715c0.24781,-0.18123 0.50128,-0.36432 0.76041,-0.54919c0.33576,-0.08398 0.64551,-0.21072 0.92939,-0.38021c0.2473,-0.1062 0.4445,-0.27518 0.59143,-0.50694z" opacity="0.227"/><path d="M199.22792,152.75607c0,-0.02813 0,-0.05635 0,-0.08449c0.11265,0 0.22531,0 0.33796,0c-0.02263,0.1351 0.00553,0.24773 0.08449,0.33796c-0.06448,0.22314 -0.07856,0.44847 -0.04224,0.67592c0.14425,0.12986 0.27099,0.27071 0.38021,0.42245c-0.54986,-0.25541 -0.73291,-0.67786 -0.54919,-1.26735c-0.05668,-0.06354 -0.12708,-0.09176 -0.21123,-0.08449z" opacity="0.204"/><path d="M206.83204,153.17852c0.02813,0 0.05635,0 0.08449,0c0,0.05635 0,0.11263 0,0.16898c-0.061,0.0888 -0.14549,0.14515 -0.25347,0.16898c0.01352,-0.13966 0.06979,-0.25229 0.16898,-0.33796z" opacity="0.867"/><path d="M204.29733,152.58708c-0.02408,0.15107 0.00406,0.29192 0.08449,0.42245c0.08551,-0.23978 0.25448,-0.35241 0.50694,-0.33796c0.1111,0.30805 0.1111,0.58974 0,0.8449c-0.12361,0.31 -0.23632,0.28186 -0.33796,-0.08449c-0.11913,0.20691 -0.09091,0.39001 0.08449,0.54919c-0.04622,0.07816 -0.10249,0.14853 -0.16898,0.21123c-0.16129,-0.07165 -0.33027,-0.09987 -0.50694,-0.08449c0.04884,-0.16417 0.13332,-0.19239 0.25347,-0.08449c0.06827,-0.02603 0.12462,-0.06827 0.16898,-0.12674c-0.1302,-0.22618 -0.21469,-0.46554 -0.25347,-0.71817c0,-0.02813 0,-0.05635 0,-0.08449c0.01208,-0.14887 -0.01614,-0.28972 -0.08449,-0.42245c0.06971,-0.07486 0.15419,-0.103 0.25347,-0.08449z"/><path d="M201.00221,153.51648c0.16628,0.11144 0.33526,0.11144 0.50694,0c0.12428,0.07444 0.19467,0.18706 0.21123,0.33796c0.05635,-0.11263 0.11263,-0.11263 0.16898,0c0.0185,-0.1215 0.06075,-0.23412 0.12674,-0.33796c0.06168,0.15555 0.11803,0.3105 0.16898,0.4647c-0.02813,0.02813 -0.05635,0.05635 -0.08449,0.08449c0.16586,0.07131 0.27848,0.02907 0.33796,-0.12674c0.07638,0.0599 0.10451,0.14439 0.08449,0.25347c-0.69147,0.02754 -1.36739,-0.00068 -2.02777,-0.08449c0.09593,-0.14473 0.23674,-0.20109 0.42245,-0.16898c0,-0.08449 0,-0.16898 0,-0.25347c-0.16178,0.024 -0.30259,-0.00414 -0.42245,-0.08449c0.15877,-0.07106 0.32775,-0.09928 0.50694,-0.08449z"/><path d="M205.56469,153.09402c-0.09759,0.36305 -0.23835,0.70102 -0.42245,1.01388c0.03312,-0.32461 0.11761,-0.63444 0.25347,-0.92939c0.05635,-0.02813 0.11263,-0.05635 0.16898,-0.08449z" opacity="0.016"/><path d="M207.33898,153.17852c0.11263,0.02813 0.22534,0.05635 0.33796,0.08449c0.21621,-0.02552 0.41341,0.0027 0.59143,0.08449c0.03219,0.1209 0.11668,0.19129 0.25347,0.21123c-0.35579,0.06768 -0.41214,0.22255 -0.16898,0.4647c-0.30028,0.01174 -0.53972,-0.10088 -0.71817,-0.33796c-0.07984,0.03422 -0.1362,0.09058 -0.16898,0.16898c-0.06945,-0.22111 -0.1117,-0.44645 -0.12674,-0.67592z"/><path d="M209.11327,153.09402c0.14499,-0.0109 0.28583,-0.03904 0.42245,-0.08449c0,0.14085 0,0.2816 0,0.42245c0.40834,-0.15504 0.83079,-0.26775 1.26735,-0.33796c-0.28388,0.16949 -0.59363,0.29622 -0.92939,0.38021c-0.25913,0.18486 -0.5126,0.36795 -0.76041,0.54919c-0.14085,0 -0.2816,0 -0.42245,0c-0.11263,0 -0.22534,0 -0.33796,0c-0.24316,-0.24215 -0.18681,-0.39702 0.16898,-0.4647c-0.13679,-0.01994 -0.22128,-0.09032 -0.25347,-0.21123c0.17329,0.12994 0.31413,0.10172 0.42245,-0.08449c-0.10046,-0.07849 -0.21308,-0.10663 -0.33796,-0.08449c-0.02214,-0.12488 0.006,-0.2375 0.08449,-0.33796c0.10308,0.10232 0.20168,0.10232 0.29571,0c0.09227,0.13662 0.219,0.22111 0.38021,0.25347z"/><path d="M206.66306,153.51648c-0.02112,0.18368 -0.10561,0.32453 -0.25347,0.42245c0.02112,-0.18368 0.10561,-0.32453 0.25347,-0.42245z" opacity="0.235"/><path d="M199.65037,152.75607c0.05633,0.02813 0.11265,0.05635 0.16898,0.08449c-0.01391,0.25499 0.00017,0.50846 0.04224,0.76041c0.06123,0.04723 0.13164,0.07537 0.21123,0.08449c0.11549,-0.06126 0.22815,-0.11761 0.33796,-0.16898c0,0.05635 0.02816,0.08449 0.08449,0.08449c0.11986,0.08035 0.26068,0.10848 0.42245,0.08449c0,0.08449 0,0.16898 0,0.25347c-0.18571,-0.0321 -0.32652,0.02425 -0.42245,0.16898c-0.15499,-0.08398 -0.29581,-0.08398 -0.42245,0c-0.02816,0 -0.05633,0 -0.08449,0c-0.10922,-0.15175 -0.23596,-0.29259 -0.38021,-0.42245c-0.03632,-0.22745 -0.02223,-0.45278 0.04224,-0.67592c0,-0.08449 0,-0.16898 0,-0.25347z"/><path d="M206.91653,153.34749c0.35714,0.09936 0.41341,0.28237 0.16898,0.54919c0.21047,0.05289 0.21047,0.12327 0,0.21123c0.03067,0.05771 0.0588,0.11406 0.08449,0.16898c-0.26403,0.08272 -0.54564,0.11094 -0.8449,0.08449c0.0109,-0.14499 0.03904,-0.28583 0.08449,-0.42245c0.14786,-0.09793 0.23235,-0.23877 0.25347,-0.42245c0.10798,-0.02383 0.19247,-0.08018 0.25347,-0.16898z"/><path d="M207.25449,152.08015c0.00076,0.39389 0.02898,0.75999 0.08449,1.09837c0.01504,0.22947 0.05729,0.45481 0.12674,0.67592c0.03278,-0.07841 0.08914,-0.13476 0.16898,-0.16898c0.17844,0.23708 0.41789,0.34971 0.71817,0.33796c0.11263,0 0.22534,0 0.33796,0c0.00938,0.05213 0.03751,0.09437 0.08449,0.12674c-0.53195,0.08551 -1.06703,0.12775 -1.60531,0.12674c-0.02569,-0.05492 -0.05382,-0.11127 -0.08449,-0.16898c0.21047,-0.08795 0.21047,-0.15833 0,-0.21123c0.24443,-0.26682 0.18816,-0.44983 -0.16898,-0.54919c0,-0.05635 0,-0.11263 0,-0.16898c0.07503,-0.38638 0.18765,-0.75247 0.33796,-1.09837z"/><path d="M202.52304,153.09402c0.05635,0.08449 0.11263,0.16898 0.16898,0.25347c0.07891,0.09024 0.10713,0.20286 0.08449,0.33796c0.02163,0.19365 -0.00651,0.37674 -0.08449,0.54919c-0.81677,0.05635 -1.63345,0.05635 -2.45022,0c-0.04598,-0.06058 -0.10231,-0.10282 -0.16898,-0.12674c0.12664,-0.08398 0.26746,-0.08398 0.42245,0c0.66037,0.08382 1.3363,0.11204 2.02777,0.08449c0.02002,-0.10908 -0.00811,-0.19357 -0.08449,-0.25347c0.17337,-0.2092 0.20151,-0.43445 0.08449,-0.67592c0,-0.05635 0,-0.11263 0,-0.16898z" opacity="0.993"/><path d="M204.88876,153.51648c0.02813,0 0.05635,0 0.08449,0c0.12065,0.1939 0.07841,0.36288 -0.12674,0.50694c-0.02813,0.19712 -0.05635,0.39432 -0.08449,0.59143c-0.08449,0.05635 -0.16898,0.11263 -0.25347,0.16898c-0.15006,-0.08753 -0.30493,-0.08753 -0.4647,0c-0.07503,-0.21579 -0.10316,-0.44112 -0.08449,-0.67592c0.17667,-0.01538 0.34565,0.01284 0.50694,0.08449c0.06649,-0.06269 0.12277,-0.13307 0.16898,-0.21123c-0.1754,-0.15918 -0.20362,-0.34227 -0.08449,-0.54919c0.10164,0.36635 0.21435,0.39448 0.33796,0.08449z"/><path d="M206.40959,153.93893c-0.04546,0.13662 -0.07359,0.27747 -0.08449,0.42245c0.29927,0.02644 0.58087,-0.00178 0.8449,-0.08449c0.53829,0.00101 1.07336,-0.04123 1.60531,-0.12674c-0.04698,-0.03236 -0.07511,-0.0746 -0.08449,-0.12674c0.14085,0 0.2816,0 0.42245,0c-0.04715,0.10899 -0.13163,0.17937 -0.25347,0.21123c-0.71487,0.12226 -1.43304,0.22086 -2.1545,0.29571c-0.56237,-0.00803 -0.66097,-0.20514 -0.29571,-0.59143z" opacity="0.294"/><path d="M202.77651,153.68546c0.25845,0.30442 0.2021,0.54386 -0.16898,0.71817c-0.76041,0.05635 -1.52083,0.05635 -2.28124,0c-0.15409,-0.05576 -0.26673,-0.15436 -0.33796,-0.29571c0.02816,0 0.05633,0 0.08449,0c0.06667,0.02391 0.123,0.06615 0.16898,0.12674c0.81677,0.05635 1.63345,0.05635 2.45022,0c0.07798,-0.17244 0.10612,-0.35553 0.08449,-0.54919z" opacity="0.54"/><path d="M203.7059,154.61485c0.17202,0.14414 0.25651,0.34126 0.25347,0.59143c-0.02813,0 -0.05635,0 -0.08449,0c-0.07663,-0.18225 -0.1329,-0.37936 -0.16898,-0.59143z" opacity="0.737"/><path d="M204.12835,153.17852c0.03878,0.25262 0.12327,0.49198 0.25347,0.71817c-0.04436,0.05847 -0.10071,0.10071 -0.16898,0.12674c-0.12015,-0.10789 -0.20463,-0.07967 -0.25347,0.08449c-0.01867,0.2348 0.00946,0.46013 0.08449,0.67592c0.06953,0.25018 0.12589,0.50365 0.16898,0.76041c-0.12454,-0.07908 -0.20903,-0.19179 -0.25347,-0.33796c0.00304,-0.25018 -0.08145,-0.44729 -0.25347,-0.59143c-0.05044,-0.01986 -0.07857,-0.0621 -0.08449,-0.12674c0.07706,-0.19577 0.16154,-0.37885 0.25347,-0.54919c0.13282,-0.22939 0.21731,-0.48286 0.25347,-0.76041z"/><path d="M205.22672,153.09402c0.05635,0.02813 0.11263,0.05635 0.16898,0.08449c-0.13586,0.29496 -0.22035,0.60478 -0.25347,0.92939c0.02002,0.10908 -0.00811,0.19357 -0.08449,0.25347c-0.13662,0.13696 -0.23522,0.30594 -0.29571,0.50694c-0.01445,0.45321 -0.05669,0.90388 -0.12674,1.35184c-0.14304,-0.22677 -0.28388,-0.45211 -0.42245,-0.67592c-0.04309,-0.25677 -0.09944,-0.51024 -0.16898,-0.76041c0.15977,-0.08753 0.31464,-0.08753 0.4647,0c0.08449,-0.05635 0.16898,-0.11263 0.25347,-0.16898c0.02813,-0.19712 0.05635,-0.39432 0.08449,-0.59143c0.20514,-0.14405 0.24739,-0.31304 0.12674,-0.50694c0.07266,-0.15107 0.15715,-0.29192 0.25347,-0.42245z"/><path d="M205.05774,154.36138c-0.04487,0.23125 -0.11524,0.45659 -0.21123,0.67592c-0.0163,0.44357 -0.05855,0.88014 -0.12674,1.3096c-0.08018,0.05213 -0.15056,0.03811 -0.21123,-0.04224c-0.21317,-0.37074 -0.42439,-0.73693 -0.63368,-1.09837c0.02813,0 0.05635,0 0.08449,0c0.04444,0.14617 0.12893,0.25888 0.25347,0.33796c0.13857,0.22381 0.27941,0.44915 0.42245,0.67592c0.07004,-0.44797 0.11229,-0.89864 0.12674,-1.35184c0.06049,-0.201 0.1591,-0.36998 0.29571,-0.50694z" opacity="0.197"/><path d="M204.46631,156.55812c-0.08449,0 -0.16898,0 -0.25347,0c0.08449,-0.22534 0.16898,-0.22534 0.25347,0z" opacity="0.341"/><path d="M204.71978,156.7271c0.08415,-0.00726 0.15453,0.02096 0.21123,0.08449c0.05635,0.25347 0.05635,0.50694 0,0.76041c-0.03236,0.04698 -0.0746,0.07511 -0.12674,0.08449c0.02163,-0.31845 -0.00651,-0.62827 -0.08449,-0.92939z" opacity="0.137"/><path d="M204.21284,156.55812c0.08449,0 0.16898,0 0.25347,0c0.10223,0.0365 0.18673,0.09286 0.25347,0.16898c0.07798,0.30112 0.10612,0.61095 0.08449,0.92939c-0.0599,0.07638 -0.14439,0.10451 -0.25347,0.08449c-0.15259,-0.37987 -0.26521,-0.77418 -0.33796,-1.18286z"/><path d="M204.21284,156.55812c0.07275,0.40868 0.18537,0.80299 0.33796,1.18286c-0.08423,0.00253 -0.14059,-0.03971 -0.16898,-0.12674c-0.07038,-0.21123 -0.14085,-0.42245 -0.21123,-0.63368c-0.0659,-0.15943 -0.05179,-0.30028 0.04224,-0.42245z" opacity="0.212"/></g></g></g></svg>